<?xml version="1.0" standalone="no"?>
<!DOCTYPE svg PUBLIC "-//W3C//DTD SVG 20010904//EN"
 "http://www.w3.org/TR/2001/REC-SVG-20010904/DTD/svg10.dtd">
<svg version="1.0" xmlns="http://www.w3.org/2000/svg"
 width="1024.000000pt" height="1024.000000pt" viewBox="0 0 1024.000000 1024.000000"
 preserveAspectRatio="xMidYMid meet">

<g transform="translate(0.000000,1024.000000) scale(0.100000,-0.100000)"
fill="#000000" stroke="none">
<path d="M0 5120 l0 -5120 5120 0 5120 0 0 499 0 500 -57 -6 c-32 -2 -64 -6
-70 -8 -10 -3 -13 -101 -15 -427 l-3 -423 -765 -6 c-928 -7 -3231 2 -3175 12
22 5 912 11 1978 15 l1939 7 -7 411 -6 411 -34 3 -35 3 0 -128 c0 -70 -3 -172
-7 -226 -5 -81 -9 -97 -22 -95 -14 3 -15 183 -13 1798 2 987 5 1832 9 1878 4
54 10 81 17 79 8 -3 12 -450 13 -1632 1 -895 4 -1629 6 -1631 2 -3 44 -1 92 2
l88 7 -9 1526 c-10 1830 -6 6592 6 6605 4 4 13 5 18 2 7 -4 10 -1389 10 -4074
l0 -4067 21 -3 21 -3 0 4605 0 4606 -210 0 -210 0 0 -275 c0 -151 -3 -275 -7
-276 -5 0 -16 -2 -25 -4 -17 -3 -18 14 -19 233 -1 131 -2 242 -4 247 -1 6 -3
25 -3 43 l-2 32 -4880 0 -4880 0 0 -5120z m9392 4960 l328 0 0 -25 0 -25 -412
0 c-612 0 -2564 19 -2705 26 -68 3 -123 10 -123 15 0 8 2201 19 2464 12 66 -2
267 -3 448 -3z m-5605 -16 c-3 -3 -12 -4 -19 -1 -8 3 -5 6 6 6 11 1 17 -2 13
-5z m6318 -392 c-1 -2866 -6 -3952 -19 -3952 -7 0 -16 10 -20 23 -8 31 -8
4312 1 4321 4 4 14 5 23 4 13 -3 15 -49 15 -396z m-4199 327 c269 -38 504 -93
794 -185 485 -155 787 -310 1280 -658 280 -199 383 -282 562 -453 151 -144
178 -166 178 -143 0 5 7 7 15 4 10 -4 12 -15 8 -35 -4 -24 -3 -28 10 -23 36
13 167 -124 309 -323 44 -62 83 -113 88 -113 11 0 70 -90 70 -108 0 -8 40 -95
90 -193 153 -304 345 -764 448 -1074 114 -343 164 -588 233 -1140 18 -138 18
-768 1 -898 -31 -228 -107 -636 -157 -841 -50 -203 -176 -539 -287 -760 -152
-305 -487 -896 -508 -896 -4 0 -13 7 -20 15 -14 17 -30 20 -30 5 0 -5 6 -10
14 -10 7 0 19 -6 25 -13 12 -15 -6 -41 -238 -332 -347 -435 -704 -721 -1476
-1180 -71 -42 -152 -90 -180 -107 -27 -17 -128 -69 -223 -115 -143 -69 -191
-88 -270 -103 -54 -11 -128 -26 -167 -35 -107 -23 -129 -17 -42 11 43 14 81
32 84 40 4 10 21 14 62 13 31 -1 45 -4 31 -6 -14 -3 -29 -9 -35 -15 -7 -7 -4
-9 10 -5 11 3 45 11 75 17 117 26 373 154 650 324 192 118 439 272 505 315
187 121 465 332 588 444 99 91 303 315 404 444 l65 83 -45 44 -44 45 -16 -35
c-9 -19 -29 -40 -43 -46 -23 -11 -28 -10 -40 7 -8 10 -14 24 -14 29 0 17 77
96 93 96 21 0 67 57 74 90 3 17 0 36 -6 44 -16 19 1 52 120 231 143 216 223
353 324 560 267 542 404 1027 481 1700 24 206 24 703 0 895 -41 330 -139 769
-227 1014 -22 61 -49 138 -59 171 -10 33 -46 123 -80 200 -33 77 -62 145 -63
150 -2 6 -6 16 -11 23 -4 7 -5 20 -2 28 3 8 1 12 -4 9 -5 -3 -35 45 -66 107
-49 99 -100 194 -192 357 -14 25 -42 63 -62 85 -26 29 -39 54 -44 85 -5 31
-19 57 -51 94 -24 28 -41 55 -38 60 3 6 1 7 -5 3 -12 -7 -44 33 -36 46 3 5 0
7 -7 6 -17 -4 -19 50 -2 56 7 3 12 0 10 -6 -1 -7 5 -12 13 -13 8 0 14 -8 12
-17 -1 -9 3 -20 9 -24 8 -5 9 -3 4 7 -5 8 1 5 14 -5 12 -11 19 -26 16 -33 -3
-9 0 -11 6 -7 8 4 9 -1 4 -16 -6 -18 -4 -22 8 -17 23 9 37 -12 27 -39 -13 -33
9 -31 33 2 21 29 21 30 -60 137 -37 50 -42 61 -32 75 11 14 11 15 -1 5 -10 -9
-17 -10 -27 -2 -9 8 -17 8 -27 0 -10 -8 -16 -9 -21 -1 -3 5 0 10 8 10 17 0 37
41 37 75 0 31 -2 31 -55 0 l-43 -26 -32 41 c-17 22 -58 61 -91 86 -32 26 -59
55 -59 65 0 23 -358 358 -545 510 -209 170 -522 382 -684 463 -86 44 -50 13
110 -94 261 -174 453 -316 649 -479 118 -99 469 -441 559 -545 47 -55 50 -62
45 -97 -5 -29 -3 -39 7 -39 11 0 11 -2 -1 -11 -11 -8 -8 -9 15 -5 22 5 26 4
15 -4 -20 -13 -50 -13 -50 1 0 5 -4 8 -8 5 -5 -3 -15 7 -23 22 -26 51 -116
157 -242 284 -87 87 -122 129 -115 136 8 8 5 9 -8 6 -14 -4 -31 9 -63 46 -40
47 -200 192 -331 301 -138 114 -388 289 -558 389 -71 42 -88 56 -75 62 12 4
13 7 4 7 -8 1 -11 4 -8 8 13 12 -15 33 -44 33 -22 0 -29 5 -29 19 0 14 -12 22
-48 30 -73 18 -79 24 -53 56 12 16 21 42 21 62 0 32 -3 36 -62 62 -151 68
-564 201 -763 246 -66 15 -201 40 -300 56 -275 45 -253 40 -230 49 14 6 4 9
-35 11 -45 2 -49 3 -20 7 l35 5 -30 8 c-62 15 79 7 211 -12z m3814 -55 l0 -26
-1307 6 c-1460 7 -1676 11 -1694 32 -10 12 212 14 1495 14 l1506 0 0 -26z
m-4335 -24 c-3 -5 -34 -9 -68 -8 l-62 1 50 7 c78 11 87 11 80 0z m113 -17
c-16 -2 -40 -2 -55 0 -16 2 -3 4 27 4 30 0 43 -2 28 -4z m105 -10 c-7 -2 -19
-2 -25 0 -7 3 -2 5 12 5 14 0 19 -2 13 -5z m1632 -107 c560 -276 1123 -682
1560 -1126 88 -89 197 -193 241 -230 45 -38 100 -95 123 -127 115 -159 274
-397 316 -473 83 -148 225 -415 225 -422 0 -5 -7 -8 -15 -8 -9 0 -41 51 -81
133 -74 147 -194 357 -260 457 -161 242 -191 277 -424 513 -253 257 -390 383
-597 549 -357 287 -722 522 -1116 720 -100 50 -193 94 -206 97 -14 4 -27 13
-29 20 -8 25 48 3 263 -103z m326 10 c197 -108 529 -326 754 -495 247 -186
528 -441 750 -681 38 -41 105 -105 150 -143 88 -75 152 -146 224 -252 63 -92
282 -456 343 -570 l48 -90 -2 215 c0 118 -3 205 -5 192 -8 -41 -36 -20 -90 68
-177 292 -241 371 -386 480 -66 50 -107 90 -129 124 -81 128 -207 257 -498
505 -237 203 -647 499 -899 650 -62 36 -89 57 -77 59 61 12 651 -385 938 -631
48 -41 138 -122 200 -179 62 -58 151 -139 197 -179 45 -40 115 -116 154 -168
43 -57 94 -112 131 -139 97 -73 217 -200 280 -297 70 -106 169 -244 176 -245
3 0 4 64 2 143 -3 141 -4 143 -37 197 -18 30 -58 102 -90 160 -61 113 -197
323 -263 407 -23 29 -68 67 -104 89 -109 66 -199 138 -348 279 -80 75 -192
175 -250 222 -107 86 -452 323 -470 323 -6 0 -10 5 -10 10 0 19 59 10 112 -18
80 -43 289 -176 376 -242 42 -31 138 -109 212 -173 74 -65 141 -117 147 -117
10 0 11 51 6 225 l-6 225 251 0 252 0 0 -32 0 -31 -215 6 -215 5 0 -256 c1
-277 1 -278 55 -300 17 -7 71 -36 120 -65 86 -51 93 -58 167 -163 84 -119 204
-316 264 -434 l39 -75 3 598 2 597 24 0 24 0 0 -1252 c0 -689 -2 -1246 -4
-1238 -2 8 -5 85 -6 170 l-4 155 -83 160 c-142 271 -327 580 -413 688 -47 60
-631 636 -753 743 -299 262 -717 555 -1093 765 -70 39 -129 73 -132 76 -3 3
11 3 30 -1 19 -3 87 -35 151 -70z m-1448 33 c-19 -6 -40 -5 -55 0 -18 8 -12
10 32 9 50 0 52 -1 23 -9z m-433 -10 c38 -7 67 -15 65 -19 -3 -4 11 -4 30 0
20 5 33 4 29 -1 -3 -5 6 -9 20 -9 14 0 26 5 26 10 0 6 5 10 10 10 15 0 12 -19
-5 -36 -12 -12 -29 -13 -102 -5 -201 23 -298 31 -376 31 -51 0 -77 4 -68 9 7
5 31 6 52 4 25 -4 39 -2 39 6 0 15 188 15 280 0z m485 1 c-3 -5 -16 -10 -28
-9 -21 0 -21 1 -2 9 28 12 37 12 30 0z m-1097 -7 c-10 -2 -26 -2 -35 0 -10 3
-2 5 17 5 19 0 27 -2 18 -5z m79 1 c-3 -3 -12 -4 -19 -1 -8 3 -5 6 6 6 11 1
17 -2 13 -5z m106 -1 c-18 -2 -48 -2 -65 0 -18 2 -4 4 32 4 36 0 50 -2 33 -4z
m1107 -28 c102 -25 367 -106 492 -151 66 -23 76 -30 68 -44 -5 -10 -6 -21 -2
-25 4 -5 -1 -5 -11 -2 -10 4 -42 14 -72 23 -30 8 -55 20 -55 25 0 5 -3 8 -7 7
-5 0 -15 2 -23 5 -8 3 -40 15 -70 25 -30 11 -100 36 -155 55 -55 20 -108 37
-117 37 -10 0 -18 4 -18 8 0 4 -10 8 -22 9 -11 1 -24 6 -27 11 -3 4 -25 9 -49
10 -23 0 -48 4 -55 9 -6 4 -16 8 -22 9 -5 0 -16 2 -22 2 -7 1 -13 7 -13 13 0
13 46 6 180 -26z m-4499 -9 c11 6 11 4 0 -10 -11 -13 -16 -14 -22 -4 -7 10 -9
9 -9 -3 0 -9 -18 -28 -40 -43 -47 -31 -51 -32 -44 -8 5 14 4 14 -4 2 -6 -8 -9
-17 -7 -21 3 -4 -14 -19 -38 -34 -23 -16 -96 -70 -162 -121 -66 -52 -124 -93
-128 -93 -4 0 -18 -6 -31 -14 -19 -13 -23 -13 -23 -2 0 8 3 12 7 10 3 -2 11 8
18 23 30 64 445 350 463 320 4 -6 13 -7 20 -2z m4116 -32 c-3 -3 -12 -4 -19
-1 -8 3 -5 6 6 6 11 1 17 -2 13 -5z m-4772 -15 c4 -6 4 -84 0 -174 -6 -127
-10 -162 -20 -158 -7 2 -15 -4 -17 -14 -2 -10 -7 63 -10 162 -3 99 -4 183 -1
188 6 11 41 9 48 -4z m4828 4 c-7 -2 -19 -2 -25 0 -7 3 -2 5 12 5 14 0 19 -2
13 -5z m2304 -9 c7 -18 -14 -35 -34 -27 -16 6 -17 30 0 36 21 9 27 7 34 -9z
m-2064 -25 c18 -5 47 -9 65 -9 18 0 31 -4 28 -9 -3 -4 6 -6 19 -3 14 2 22 8
19 13 -3 5 0 9 5 9 6 0 11 -5 11 -11 0 -6 6 -9 14 -6 7 3 18 1 23 -4 5 -5 22
-10 38 -12 17 -2 40 -9 53 -16 12 -6 22 -9 22 -6 0 3 10 0 23 -7 21 -13 28
-14 55 -17 7 0 11 -4 9 -8 -3 -5 14 -8 38 -8 31 0 41 -3 34 -11 -11 -14 -1
-24 17 -17 8 3 14 0 14 -7 0 -6 4 -8 10 -5 6 3 7 -1 4 -10 -4 -9 -3 -15 2 -14
17 4 44 -13 38 -23 -4 -6 4 -4 17 3 23 12 23 12 4 20 -11 4 -14 8 -8 8 7 1 31
-7 54 -16 35 -16 40 -21 36 -45 -2 -16 1 -28 6 -28 6 0 8 -2 5 -5 -3 -3 -31 5
-62 19 -77 34 -365 139 -454 166 -41 12 -126 35 -190 51 -112 28 -114 29 -49
23 37 -3 82 -10 100 -15z m94 15 c-3 -3 -12 -4 -19 -1 -8 3 -5 6 6 6 11 1 17
-2 13 -5z m-4123 -21 c-10 -7 -23 -13 -30 -13 -7 0 -14 -4 -16 -9 -1 -5 -79
-62 -173 -127 -266 -183 -347 -246 -565 -440 -167 -149 -361 -343 -412 -413
-23 -31 -45 -57 -50 -59 -4 -2 -8 -9 -8 -15 0 -7 -22 -30 -48 -52 -184 -155
-289 -283 -439 -535 l-93 -154 0 -123 c0 -67 -5 -134 -10 -148 -7 -20 -7 -32
4 -46 13 -19 14 -19 25 12 22 63 144 275 244 424 172 257 234 334 416 515 97
96 230 231 296 300 66 69 152 155 191 190 175 161 304 263 484 384 100 67 66
37 -77 -68 -189 -139 -314 -248 -517 -450 -110 -111 -233 -235 -271 -277 -39
-41 -108 -111 -155 -155 -116 -107 -157 -163 -318 -429 -186 -307 -322 -560
-322 -597 0 -11 -5 -16 -10 -13 -6 4 -10 105 -10 270 0 213 3 263 13 259 8 -3
21 14 35 48 48 115 160 283 252 378 25 26 36 36 26 23 -40 -48 2 -20 64 42 62
63 75 93 16 38 -16 -14 -27 -22 -25 -16 5 13 111 109 156 141 18 12 61 59 96
105 107 136 419 432 673 638 138 112 536 386 562 386 11 0 11 -3 -4 -14z
m7490 -100 c3 -42 6 -163 6 -268 0 -160 -2 -194 -15 -198 -8 -4 -17 -2 -20 3
-3 5 -5 129 -4 275 2 195 6 265 14 265 8 0 14 -28 19 -77z m236 -27 c0 -75 4
-105 13 -109 19 -7 15 -3592 -5 -3592 -10 0 -15 28 -19 110 -9 154 -21 3523
-13 3618 4 42 11 77 15 77 5 0 9 -47 9 -104z m-360 47 c1 -16 7 -55 15 -88 9
-38 15 -113 15 -201 0 -154 0 -154 -60 -154 -35 0 -40 16 -40 130 l0 86 -34
12 c-29 11 -163 144 -225 225 -13 16 -4 17 158 17 l171 0 0 -27z m-3905 -52
c563 -63 1147 -255 1627 -537 136 -80 374 -243 499 -341 48 -37 95 -73 105
-80 17 -10 17 -12 2 -12 -9 -1 -32 13 -50 30 -79 73 -460 332 -633 431 -459
261 -1006 435 -1555 494 -219 24 -761 24 -995 0 -411 -42 -849 -142 -1155
-263 -210 -83 -508 -235 -750 -381 -14 -9 -20 -11 -15 -4 23 26 292 179 450
257 357 174 662 274 1075 350 135 24 413 60 545 68 115 8 751 -1 850 -12z
m-2959 -42 c3 -6 1 -16 -5 -22 -13 -13 -42 0 -49 21 -5 15 44 16 54 1z m-406
-144 c-7 -8 -17 -15 -23 -15 -6 0 -2 7 9 15 25 19 30 19 14 0z m435 5 c-3 -5
-12 -10 -18 -10 -7 0 -6 4 3 10 19 12 23 12 15 0z m105 -5 c-7 -8 -20 -15 -29
-15 -13 1 -13 3 3 15 26 19 42 19 26 0z m4320 -17 c17 -21 17 -25 3 -40 -21
-23 -32 -23 -60 4 -22 20 -22 22 -5 39 23 24 40 23 62 -3z m-4470 -2 c0 -3 -4
-8 -10 -11 -5 -3 -10 -1 -10 4 0 6 5 11 10 11 6 0 10 -2 10 -4z m80 -15 c0 -4
-22 -22 -50 -39 -46 -29 -50 -30 -50 -11 0 14 13 26 43 39 47 22 57 24 57 11z
m-530 -5 c0 -3 -4 -8 -10 -11 -5 -3 -10 -1 -10 4 0 6 5 11 10 11 6 0 10 -2 10
-4z m-1565 -28 c14 -49 17 -99 5 -113 -23 -28 -30 -15 -30 60 0 74 11 97 25
53z m1675 7 c0 -8 5 -15 10 -15 6 0 10 -9 10 -20 0 -23 -8 -24 -44 -10 -30 11
-34 34 -8 49 24 14 32 13 32 -4z m440 7 c0 -4 -15 -16 -32 -26 l-33 -17 30 25
c33 29 35 30 35 18z m-600 -16 c0 -3 -60 -49 -133 -104 -231 -172 -375 -299
-637 -561 -259 -260 -337 -347 -406 -457 -22 -34 -74 -113 -116 -177 -43 -63
-82 -125 -88 -138 -5 -13 -42 -73 -80 -134 -39 -60 -82 -130 -96 -155 -15 -25
-45 -75 -67 -112 -37 -65 -57 -83 -57 -55 0 7 4 17 9 23 4 5 27 45 51 89 53
99 88 154 325 513 l190 287 240 244 c327 332 443 433 770 674 92 68 95 70 95
63z m270 -10 c0 -3 -4 -8 -10 -11 -5 -3 -10 -1 -10 4 0 6 5 11 10 11 6 0 10
-2 10 -4z m3045 -57 c321 -26 647 -94 915 -191 294 -106 696 -313 940 -483 41
-29 86 -56 100 -60 42 -13 237 -163 408 -312 89 -79 167 -143 173 -143 6 0 9
-5 7 -12 -7 -20 -38 -17 -66 6 -15 13 -55 42 -89 65 -34 23 -113 88 -175 143
-346 307 -661 506 -1123 708 -259 114 -626 203 -1011 247 -209 24 -748 24
-962 0 -482 -54 -820 -152 -1250 -364 l-193 -95 68 -40 c102 -59 105 -64 84
-99 -9 -15 -30 -38 -45 -50 -21 -17 -25 -24 -14 -30 10 -7 9 -9 -4 -9 -10 0
-23 -9 -30 -20 -8 -13 -24 -20 -43 -21 -37 0 -128 -42 -118 -54 5 -4 -1 -3
-11 2 -18 10 -20 25 -23 156 l-4 145 27 21 c15 12 37 21 49 21 30 0 173 56
307 119 135 64 331 143 467 188 449 147 1047 207 1616 162z m-2927 -11 c-2 -6
-13 -12 -24 -14 -19 -3 -19 -3 0 12 24 17 29 18 24 2z m-54 -38 c-10 -4 -21
-6 -24 -3 -8 7 24 22 34 16 5 -4 1 -10 -10 -13z m-44 -30 c-24 -15 -37 -11
-16 5 11 8 22 12 25 9 3 -3 -1 -9 -9 -14z m-1628 -123 c7 -8 20 -12 28 -10 8
2 -8 -8 -35 -21 -47 -22 -59 -36 -166 -197 -101 -153 -148 -227 -224 -353 -12
-19 -26 -31 -34 -28 -8 2 -11 1 -8 -4 3 -5 -1 -18 -9 -29 -51 -70 34 125 118
269 58 100 222 349 239 363 8 6 25 13 39 16 14 2 28 5 32 6 4 0 13 -5 20 -12z
m4505 -37 c156 -10 346 -31 339 -37 -2 -2 -75 3 -162 12 -88 8 -249 19 -359
24 -170 7 -182 8 -80 9 66 1 184 -3 262 -8z m-469 -7 c-15 -2 -42 -2 -60 0
-18 2 -6 4 27 4 33 0 48 -2 33 -4z m-145 -10 c-7 -2 -19 -2 -25 0 -7 3 -2 5
12 5 14 0 19 -2 13 -5z m1022 -33 c25 -11 -1 -11 -35 0 -20 6 -21 8 -5 8 11 0
29 -3 40 -8z m-149 -90 c170 -22 344 -57 479 -95 98 -28 228 -75 223 -81 -2
-1 -53 12 -112 31 -204 65 -502 123 -741 145 -169 15 -613 12 -781 -5 -193
-21 -472 -77 -640 -130 -15 -5 -16 -5 -4 4 48 31 340 102 543 131 238 35 773
35 1033 0z m-2916 6 c0 -3 -15 -14 -32 -26 l-33 -22 30 26 c31 27 35 29 35 22z
m-2457 -1171 c5 -964 -4 -1788 -21 -1840 -6 -16 -11 -25 -12 -20 -5 32 1 2344
7 2655 11 568 20 300 26 -795z m2357 1101 c0 -2 -8 -10 -17 -17 -16 -13 -17
-12 -4 4 13 16 21 21 21 13z m-330 -78 c0 -23 -61 -73 -70 -58 -12 20 0 47 25
58 18 8 25 8 29 -1 2 -7 5 -4 5 6 1 9 -4 17 -10 17 -5 0 -7 5 -3 11 8 14 24
-8 24 -33z m75 -108 c-10 -11 -23 -20 -29 -20 -6 0 0 9 14 20 32 25 38 25 15
0z m585 5 c0 -2 -26 -21 -57 -41 -31 -20 -104 -72 -161 -115 -57 -44 -108 -76
-114 -73 -7 4 -3 11 9 18 11 6 40 27 64 47 58 47 238 169 250 169 5 0 9 -2 9
-5z m432 -213 c-4 -20 -9 -22 -37 -16 -18 3 -42 1 -52 -5 -15 -8 -20 -7 -20 5
0 8 6 13 13 10 26 -10 54 24 55 67 0 23 3 36 6 30 10 -27 23 -11 25 30 1 30 3
21 7 -28 4 -38 5 -80 3 -93z m4628 137 c0 -6 -4 -7 -10 -4 -5 3 -10 11 -10 16
0 6 5 7 10 4 6 -3 10 -11 10 -16z m-6084 -60 c-50 -54 -73 -91 -46 -74 16 10
12 -41 -4 -54 -12 -10 -18 -7 -32 14 -16 25 -16 27 3 48 86 95 118 127 126
127 5 0 -16 -27 -47 -61z m304 37 c0 -11 -19 -15 -25 -6 -3 5 1 10 9 10 9 0
16 -2 16 -4z m4545 -26 c3 -6 -1 -7 -9 -4 -18 7 -21 14 -7 14 6 0 13 -4 16
-10z m-5043 -79 c-10 -14 -28 -26 -40 -27 -18 -1 -142 -99 -142 -112 0 -2 8
-12 18 -21 9 -9 23 -24 31 -34 12 -15 12 -17 -3 -11 -12 5 -16 0 -16 -19 0
-13 -7 -30 -15 -37 -8 -7 -15 -18 -15 -25 0 -7 -7 -18 -15 -25 -20 -17 -19
-32 5 -57 l19 -21 -52 -65 c-29 -35 -78 -101 -110 -146 -34 -47 -65 -81 -75
-81 -9 0 -35 9 -57 20 -22 11 -65 26 -96 34 -79 22 -125 55 -121 88 6 52 -31
43 -95 -22 -34 -34 -34 -34 -16 -5 10 17 23 35 29 40 15 14 44 62 44 74 0 5
17 38 39 72 35 59 41 64 73 64 21 0 34 -4 31 -11 -2 -5 6 -19 17 -29 18 -16
24 -17 42 -6 11 7 17 8 13 2 -4 -7 2 -10 17 -8 14 3 31 18 42 38 l20 34 -25
-22 c-27 -25 -49 -32 -27 -9 7 8 21 24 32 36 13 17 20 19 26 10 5 -9 9 -9 14
-1 8 13 55 14 75 2 16 -10 11 -21 -43 -84 -32 -39 -43 -46 -65 -42 -22 5 -23
4 -6 -4 11 -5 30 -19 43 -30 17 -17 20 -26 12 -41 -5 -10 -10 -38 -10 -62 l0
-43 19 30 c11 17 49 64 85 105 36 41 66 80 66 86 0 6 -18 30 -40 54 -24 26
-40 54 -41 69 0 24 -1 24 -9 6 -8 -18 -9 -18 -9 -2 -1 10 -7 20 -13 22 -7 3
-14 16 -14 30 -1 14 2 22 7 19 5 -3 9 0 9 7 0 6 18 31 40 55 22 24 40 49 40
55 0 6 7 9 14 6 10 -4 13 -1 10 7 -3 7 13 32 34 56 l39 44 35 -22 c20 -12 41
-28 47 -36 9 -11 19 -6 53 28 41 40 43 40 46 17 2 -13 -5 -36 -16 -50z m5134
33 c59 -35 56 -40 -6 -9 -27 14 -50 28 -50 30 0 9 12 5 56 -21z m-3689 0 c-3
-3 -12 -4 -19 -1 -8 3 -5 6 6 6 11 1 17 -2 13 -5z m4983 -79 c47 -47 81 -85
77 -85 -9 0 -167 157 -167 165 0 10 6 4 90 -80z m-2876 65 c198 -11 383 -37
584 -80 415 -91 835 -301 1237 -618 125 -99 484 -447 472 -458 -3 -4 -84 72
-179 168 -436 441 -995 772 -1493 884 -351 79 -537 98 -887 91 -221 -4 -287
-9 -409 -30 -81 -14 -159 -29 -175 -33 -16 -4 -26 -4 -23 -1 19 22 319 67 504
76 83 4 159 9 170 9 11 1 101 -3 199 -8z m2456 -20 c0 -5 -2 -10 -4 -10 -3 0
-8 5 -11 10 -3 6 -1 10 4 10 6 0 11 -4 11 -10z m-794 -11 c4 -8 9 -7 15 2 6
10 9 11 9 2 0 -7 5 -13 10 -13 18 0 230 -144 353 -241 217 -169 500 -462 704
-729 408 -535 658 -1158 728 -1820 21 -204 25 -270 25 -485 0 -313 -29 -577
-86 -785 -64 -233 -143 -443 -244 -649 -106 -214 -273 -509 -355 -626 -23 -33
-62 -89 -87 -125 -128 -182 -497 -563 -700 -724 -48 -38 -85 -72 -83 -76 2 -4
-7 -5 -20 -2 -14 2 -25 6 -25 7 0 2 43 37 96 80 161 129 280 243 432 410 192
211 284 335 474 635 96 151 237 417 305 575 67 154 189 542 207 660 4 22 8 47
11 55 13 43 36 300 41 466 18 522 -74 1042 -268 1524 -54 132 -181 395 -226
464 -14 23 -35 57 -45 76 -30 53 -113 175 -189 275 -102 136 -104 138 -130
130 -22 -7 -22 -6 -4 7 18 14 13 21 -75 124 -216 253 -531 539 -756 689 -40
26 -73 55 -73 64 0 11 -3 12 -8 4 -6 -9 -16 -6 -37 12 -17 13 -25 24 -18 25 6
0 15 -5 19 -11z m-3702 -54 c-4 -8 -11 -15 -16 -15 -6 0 -5 6 2 15 7 8 14 15
16 15 2 0 1 -7 -2 -15z m1149 -2 c-7 -2 -19 -2 -25 0 -7 3 -2 5 12 5 14 0 19
-2 13 -5z m1012 -23 c254 -23 524 -81 800 -170 72 -23 140 -44 153 -47 13 -3
21 -11 18 -18 -2 -7 16 -21 42 -34 205 -98 506 -297 679 -447 99 -87 119 -107
132 -131 17 -33 0 -28 -35 8 -146 155 -488 401 -725 519 -89 45 -99 48 -92 21
2 -10 -2 -25 -11 -34 -14 -14 -5 -21 92 -74 204 -111 428 -271 620 -443 62
-55 117 -98 122 -95 6 3 7 -1 4 -10 -9 -22 70 -99 94 -93 17 5 51 -29 43 -41
-2 -2 1 -7 6 -10 4 -3 16 -20 26 -38 18 -33 14 -63 -8 -63 -7 0 -73 59 -147
131 -226 224 -417 381 -633 521 -112 73 -262 155 -297 162 -13 2 -54 20 -93
39 -88 44 -285 108 -435 141 -179 40 -327 56 -555 63 -434 12 -725 -40 -1120
-199 -259 -105 -315 -136 -560 -311 -158 -113 -280 -206 -375 -285 -69 -58
-369 -360 -363 -365 2 -2 -8 -9 -23 -15 l-25 -12 31 43 c17 25 50 64 73 89 23
24 69 75 102 113 33 37 106 110 162 161 101 91 147 128 313 251 47 35 90 68
97 73 7 6 15 10 17 10 3 0 55 34 116 75 61 41 114 75 119 75 5 0 53 20 106 45
261 122 542 217 773 260 448 84 963 41 1456 -121 117 -38 125 -37 141 14 6 20
0 25 -47 46 -75 33 -232 80 -378 115 -234 55 -463 81 -710 81 -311 -1 -518
-36 -943 -161 -15 -4 -25 -4 -22 0 2 5 15 11 27 14 13 3 86 24 163 46 169 50
355 88 490 100 144 12 452 13 580 1z m-3021 -9 c3 -5 -1 -14 -8 -20 -12 -10
-13 -8 -9 8 6 23 9 25 17 12z m82 -52 c7 -12 -43 -58 -63 -59 -7 0 -13 -5 -13
-11 0 -5 -5 -7 -12 -3 -6 4 -16 0 -23 -9 -7 -9 -109 -116 -228 -237 -120 -121
-217 -225 -217 -230 0 -6 -5 -10 -11 -10 -16 0 90 119 286 320 93 96 186 191
206 212 37 38 62 47 75 27z m1639 -119 c-3 -5 -14 -10 -23 -10 -15 0 -15 2 -2
10 20 13 33 13 25 0z m4668 -31 c-6 -6 -9 -18 -6 -27 4 -10 2 -13 -5 -8 -16 9
-15 33 1 39 20 9 22 8 10 -4z m-6343 -14 c-7 -9 -15 -13 -19 -10 -3 3 1 10 9
15 21 14 24 12 10 -5z m-657 -26 c12 -1 4 -5 -18 -8 -48 -8 -55 -5 -29 13 10
8 21 10 22 5 2 -5 13 -10 25 -10z m3622 -4 c264 -28 430 -63 635 -134 388
-134 675 -311 972 -601 81 -79 118 -108 131 -104 19 6 23 -6 7 -22 -6 -6 12
-36 53 -86 58 -72 64 -77 102 -77 25 -1 46 -8 56 -18 103 -117 160 -188 192
-235 21 -32 44 -61 51 -65 7 -4 35 -51 62 -103 27 -52 51 -97 54 -100 11 -11
50 -70 50 -76 0 -4 8 -12 17 -19 10 -7 18 -29 20 -50 1 -20 13 -71 26 -113 99
-310 138 -485 185 -825 27 -190 28 -215 21 -412 -8 -252 -33 -431 -93 -668
-96 -378 -237 -696 -437 -980 -241 -343 -560 -650 -877 -845 -214 -131 -551
-284 -712 -322 -137 -33 -126 -28 -109 -45 12 -12 27 -11 104 5 84 18 90 18
108 2 18 -16 24 -15 112 15 162 56 272 113 510 266 270 173 552 421 811 712
88 99 174 209 174 222 0 5 11 25 25 46 14 20 22 37 18 37 -4 0 1 6 9 13 15 11
100 169 230 430 27 53 53 97 59 97 5 0 9 11 9 24 0 13 6 29 13 35 11 8 13 6
12 -9 -1 -11 -4 -23 -8 -26 -4 -4 -7 -18 -7 -30 0 -13 -6 -27 -14 -31 -8 -4
-16 -12 -17 -18 -3 -15 -36 -96 -69 -170 -79 -174 -94 -205 -100 -205 -8 0
-23 -39 -21 -52 1 -5 -5 -8 -13 -8 -8 0 -17 -12 -21 -27 -3 -16 -13 -35 -20
-43 -18 -20 -19 -31 -3 -41 9 -6 4 -9 -14 -9 -16 0 -28 -5 -28 -11 0 -6 -7 -9
-15 -5 -15 5 -22 -9 -7 -17 4 -2 1 -2 -6 0 -8 2 -12 -4 -10 -15 2 -9 -11 -37
-29 -61 -35 -46 -40 -61 -22 -61 6 0 9 -7 5 -15 -3 -8 -1 -15 3 -15 5 0 16 -3
24 -6 16 -6 112 117 149 191 12 22 24 42 28 45 4 3 18 25 30 50 13 25 25 39
27 32 3 -7 -4 -27 -15 -46 -14 -23 -17 -38 -10 -50 7 -13 -11 -45 -83 -149
-51 -73 -118 -164 -148 -202 -31 -39 -63 -82 -72 -95 -15 -23 -18 -24 -42 -11
l-26 14 55 60 c31 33 67 78 82 99 l26 40 -25 19 c-13 10 -32 19 -41 19 -9 0
-40 -28 -70 -63 -270 -321 -484 -517 -727 -667 -54 -33 -110 -71 -122 -84 -67
-64 -348 -202 -571 -281 -60 -21 -108 -41 -108 -45 0 -5 -9 -6 -20 -3 -13 3
-37 -5 -63 -22 -27 -19 -59 -30 -92 -32 -37 -3 -46 -2 -35 6 13 10 13 11 0 11
-12 0 -12 2 -2 9 7 4 12 12 11 17 -1 5 3 21 8 35 15 35 20 84 8 83 -6 -1 -53
-11 -105 -23 -85 -18 -245 -41 -387 -55 -43 -4 -51 -2 -46 10 3 7 9 14 14 14
20 0 8 39 -13 43 -13 2 0 5 27 6 138 4 418 59 647 127 423 126 839 375 1158
694 279 278 445 510 609 851 200 414 294 920 263 1410 -32 496 -115 824 -303
1201 -80 161 -112 208 -139 208 -10 0 -35 21 -56 48 -21 26 -41 51 -45 56 -4
4 -12 5 -18 1 -8 -4 -5 -16 9 -36 12 -16 18 -34 14 -41 -4 -7 -4 -10 0 -7 4 4
20 -6 36 -22 16 -16 35 -29 43 -29 8 0 27 -26 42 -57 14 -32 44 -92 65 -133
130 -255 227 -583 277 -940 24 -171 24 -609 -1 -795 -31 -236 -103 -519 -185
-722 -74 -185 -229 -456 -365 -638 -113 -151 -413 -453 -551 -556 -363 -270
-767 -443 -1206 -518 -285 -49 -517 -50 -799 -5 -178 28 -194 32 -165 44 18 8
17 9 -7 9 -25 1 -28 5 -28 34 0 53 8 57 80 47 36 -5 69 -10 73 -10 5 0 6 -3 4
-7 -3 -5 16 -9 41 -9 471 -16 542 -16 681 0 567 63 1059 302 1509 731 221 211
403 459 537 730 123 249 189 445 245 725 50 251 64 578 35 855 -30 290 -122
637 -235 885 -29 63 -63 142 -77 175 -13 33 -35 82 -48 109 -14 27 -22 53 -19
58 8 13 -28 88 -41 88 -21 0 -37 45 -40 107 -3 58 -16 95 -29 82 -3 -3 -6 -37
-7 -76 -1 -48 -5 -70 -13 -67 -6 3 -40 44 -76 92 -75 101 -341 370 -453 460
-372 296 -762 464 -1247 538 -163 25 -557 25 -725 0 -186 -27 -270 -50 -430
-117 -175 -73 -218 -82 -235 -49 -6 12 -10 23 -8 24 2 2 12 8 23 15 19 11 19
12 -3 6 -13 -4 -30 -1 -38 6 -9 7 -35 14 -57 15 -25 1 -34 -1 -24 -5 17 -6 16
-8 -7 -19 -22 -10 -24 -9 -19 5 5 12 3 14 -7 8 -8 -5 -18 -1 -27 11 -13 18
-14 18 -19 -4 -5 -15 -21 -27 -54 -39 -27 -10 -47 -20 -45 -23 1 -3 -14 -6
-36 -6 -22 -1 -52 -12 -70 -25 -28 -20 -30 -23 -14 -29 11 -4 14 -9 8 -13 -6
-4 -16 0 -23 8 -14 17 -34 9 -26 -10 3 -8 -6 -21 -20 -29 -18 -12 -24 -13 -24
-4 0 8 -5 6 -11 -4 -5 -10 -18 -18 -27 -18 -14 0 -15 -2 -2 -10 12 -7 11 -10
-5 -15 -53 -18 -81 -30 -96 -45 -57 -52 -68 -60 -79 -60 -7 0 0 10 16 22 16
12 31 25 34 28 16 16 106 84 179 134 107 73 175 107 198 100 14 -4 15 -3 4 4
-10 7 -10 11 -1 17 7 4 16 1 21 -6 7 -11 9 -11 9 2 0 9 10 21 23 27 329 161
705 272 1017 300 152 15 384 13 535 -3z m-2897 -8 c9 -10 6 -21 -11 -45 -26
-37 -44 -41 -43 -9 1 22 26 67 37 67 4 0 11 -6 17 -13z m1392 5 c0 -8 -64 -42
-78 -42 -4 0 11 11 33 24 48 29 45 28 45 18z m-1510 -27 c-7 -8 -20 -15 -29
-15 -12 0 -10 5 9 20 28 21 39 18 20 -5z m6908 -58 c24 -51 22 -67 -8 -67 -28
0 -59 59 -47 93 12 38 28 30 55 -26z m-5488 35 c0 -5 -27 -21 -59 -37 -33 -15
-62 -36 -64 -46 -6 -22 -83 -63 -92 -49 -4 6 -3 9 2 8 4 -2 9 1 10 5 2 15 56
67 69 67 7 0 31 11 55 24 24 14 46 23 51 20 4 -3 8 0 8 5 0 6 5 11 10 11 6 0
10 -4 10 -8z m-2150 -32 c0 -5 -7 -10 -15 -10 -8 0 -15 5 -15 10 0 6 7 10 15
10 8 0 15 -4 15 -10z m690 -25 c-7 -8 -17 -15 -23 -15 -5 0 -2 9 8 20 21 23
35 19 15 -5z m5844 -40 c34 -34 34 -35 12 -35 -14 0 -26 -5 -28 -11 -2 -7 -9
-5 -17 5 -12 14 -12 16 3 10 16 -6 23 11 7 20 -9 6 -22 46 -15 46 2 0 19 -16
38 -35z m319 -46 c42 -39 77 -77 77 -84 0 -18 -69 -77 -81 -70 -5 4 -13 -3
-17 -15 -7 -20 -15 -14 -78 62 -38 45 -73 89 -78 96 -13 22 49 79 90 81 5 1
45 -31 87 -70z m-6574 4 c-13 -15 -29 -33 -36 -40 -6 -7 -17 -13 -23 -13 -6 0
-8 -4 -5 -10 3 -5 -2 -10 -11 -10 -16 0 -15 2 2 22 34 40 39 44 57 51 9 3 17
11 17 17 0 5 5 10 12 10 6 0 1 -12 -13 -27z m731 24 c0 -2 -15 -16 -32 -33
l-33 -29 29 33 c28 30 36 37 36 29z m907 -32 c0 -9 -43 -47 -96 -85 -105 -76
-303 -225 -392 -295 -126 -100 -414 -406 -487 -518 -15 -23 -30 -43 -34 -45
-5 -2 -8 -12 -8 -22 0 -10 -4 -20 -9 -22 -25 -9 -314 -514 -387 -675 -67 -147
-162 -390 -170 -430 -2 -12 -9 -32 -14 -45 -18 -42 1 63 22 119 10 28 21 65
23 83 2 17 8 37 12 43 5 7 25 50 44 97 52 129 229 482 301 600 187 306 224
360 350 507 124 145 283 296 428 409 123 95 165 125 305 217 39 26 79 53 90
61 11 8 20 15 21 16 0 0 1 -7 1 -15z m4713 -75 c0 -5 -2 -10 -4 -10 -3 0 -8 5
-11 10 -3 6 -1 10 4 10 6 0 11 -4 11 -10z m-5730 -10 c0 -5 -5 -10 -11 -10 -5
0 -7 5 -4 10 3 6 8 10 11 10 2 0 4 -4 4 -10z m6335 -25 c0 -25 -4 -30 -24 -30
-32 0 -49 28 -31 50 7 9 23 15 34 13 16 -2 21 -10 21 -33z m-6655 -6 c0 -6 -4
-7 -10 -4 -5 3 -10 11 -10 16 0 6 5 7 10 4 6 -3 10 -11 10 -16z m-1320 -25 c0
-2 -7 -4 -15 -4 -8 0 -15 4 -15 10 0 5 7 7 15 4 8 -4 15 -8 15 -10z m1580 -8
c0 -2 -8 -10 -17 -17 -16 -13 -17 -12 -4 4 13 16 21 21 21 13z m-1519 -24 c-5
-10 -18 -25 -28 -33 -12 -10 -11 -5 6 19 24 35 38 43 22 14z m314 8 c3 -5 12
-7 20 -3 25 9 18 -9 -56 -137 -112 -195 -177 -329 -319 -655 -4 -11 -22 -56
-40 -100 -17 -44 -35 -89 -39 -100 -29 -70 -111 -323 -127 -387 -3 -16 -10
-28 -15 -28 -5 0 -9 -13 -9 -29 0 -16 -7 -34 -15 -41 -8 -7 -15 -26 -15 -43 0
-30 -1 -31 -17 -13 -13 13 -15 20 -5 23 6 3 12 16 12 29 0 14 -4 23 -9 19 -17
-10 84 335 156 535 108 299 278 656 425 893 30 47 42 55 53 37z m-362 -80 c-3
-11 -9 -20 -14 -20 -5 0 -9 -8 -10 -17 0 -10 -3 -13 -5 -6 -3 6 2 23 12 37 20
31 24 33 17 6z m2893 -49 c-3 -5 2 -11 13 -14 10 -2 20 -14 24 -26 3 -11 1
-19 -4 -15 -5 3 -9 1 -9 -4 0 -5 -57 -51 -127 -102 -174 -127 -260 -198 -370
-303 -407 -389 -669 -842 -813 -1402 -65 -256 -75 -336 -75 -635 0 -405 42
-658 160 -970 38 -100 170 -360 223 -441 20 -31 53 -80 73 -110 163 -246 484
-569 733 -738 157 -106 458 -271 496 -271 6 0 10 -5 10 -11 0 -5 4 -8 8 -5 4
2 60 -12 123 -33 62 -21 137 -44 166 -51 45 -12 51 -16 40 -29 -10 -12 -9 -14
4 -9 12 5 15 1 11 -18 -2 -13 -10 -24 -17 -24 -8 0 -20 -3 -29 -6 -12 -4 -16
0 -16 15 0 29 -40 68 -64 63 -10 -2 -31 5 -47 17 -16 12 -30 17 -34 11 -3 -6
-1 -10 6 -10 7 0 9 -3 6 -6 -4 -4 -13 -1 -21 5 -10 8 -16 9 -21 1 -3 -5 -28
-10 -54 -10 -26 0 -52 -5 -58 -11 -7 -7 -10 -1 -10 23 1 32 0 33 -38 31 -21
-2 -43 -7 -49 -13 -5 -5 -15 -10 -20 -10 -6 0 -4 5 4 10 11 7 5 10 -22 10 -32
0 -38 3 -39 23 -1 16 -3 17 -6 5 -2 -10 -10 -15 -19 -11 -7 3 -11 9 -8 14 3 5
-1 6 -9 3 -8 -3 -21 1 -28 8 -8 7 -21 14 -29 16 -8 2 -18 9 -22 15 -4 7 -8 9
-8 4 0 -12 -52 17 -229 131 -591 381 -1048 1004 -1206 1647 -58 237 -70 350
-70 695 0 387 20 533 113 846 51 168 154 433 173 445 6 3 10 9 10 13 -3 17 1
25 19 46 11 12 18 26 15 29 -6 11 102 196 114 194 6 -2 8 4 4 13 -4 10 2 17
16 21 11 3 21 10 21 15 0 5 -5 6 -12 2 -7 -5 -8 -3 -3 7 25 42 47 68 58 66 6
-1 31 27 55 63 24 36 65 91 93 122 27 31 49 61 49 67 0 6 16 29 37 51 27 31
38 38 46 28 7 -10 8 -9 4 3 -6 20 121 149 146 149 9 0 18 8 21 18 4 11 23 32
43 48 20 16 52 43 72 59 52 45 217 165 225 165 4 0 22 10 39 23 18 12 41 24
52 25 10 2 28 10 39 18 24 16 29 18 22 5z m-2926 -20 c0 -5 -8 -17 -17 -27
-10 -9 -18 -24 -20 -33 -1 -8 -9 -21 -18 -27 -9 -7 -17 -29 -18 -50 -2 -21 -8
-39 -15 -42 -7 -2 -9 -9 -5 -15 3 -7 2 -9 -2 -4 -5 4 -17 -1 -28 -10 -20 -18
-20 -18 -2 17 9 19 38 72 63 117 43 76 62 98 62 74z m530 -47 c-15 -17 -40
-19 -40 -2 0 6 8 20 17 30 15 17 18 17 26 3 5 -10 4 -21 -3 -31z m1413 -66
c-111 -113 -295 -335 -315 -380 -7 -15 -19 -28 -27 -28 -10 0 -9 6 4 28 19 28
70 96 92 122 7 8 48 58 92 110 80 96 232 250 247 250 5 0 -37 -46 -93 -102z
m6199 83 c7 12 9 11 7 -1 -4 -35 1 -42 26 -38 14 3 25 1 25 -4 0 -6 9 -22 20
-38 11 -15 17 -30 13 -34 -3 -3 -1 -6 5 -6 15 0 83 -140 75 -153 -3 -6 -1 -7
5 -3 6 3 15 -9 23 -31 7 -21 10 -38 8 -39 -2 0 4 -9 14 -19 10 -9 16 -24 13
-31 -3 -8 -2 -14 3 -14 4 0 14 -19 21 -42 7 -24 19 -54 26 -68 51 -101 74
-173 61 -196 -5 -10 -7 -16 -2 -12 13 12 34 -18 28 -42 -3 -12 -1 -25 4 -29
43 -27 127 -306 197 -651 78 -392 100 -632 93 -1030 -5 -284 -15 -398 -58
-655 -43 -258 -90 -464 -149 -650 -148 -466 -311 -811 -563 -1190 -167 -251
-212 -309 -231 -298 -6 4 5 -10 24 -30 19 -20 36 -41 36 -47 1 -5 2 -11 4 -12
6 -8 7 -38 2 -39 -4 0 -18 -2 -31 -5 -14 -2 -28 1 -32 7 -5 9 -17 4 -39 -14
-17 -15 -36 -27 -42 -27 -6 0 -9 -3 -5 -6 7 -7 -115 -90 -145 -100 -10 -3 -16
-9 -13 -13 2 -5 -7 -13 -20 -19 -37 -17 -33 9 7 39 48 37 59 48 139 137 62 70
71 85 57 93 -22 12 -12 52 11 44 12 -4 33 17 77 77 147 201 309 456 390 617
30 58 59 105 64 104 5 -2 7 3 4 10 -2 7 21 69 52 137 128 285 176 421 258 725
80 298 139 657 164 995 27 373 -36 923 -164 1420 -45 176 -110 385 -126 406
-16 21 -48 126 -41 137 3 6 1 7 -5 3 -7 -4 -12 -2 -12 4 0 18 -107 284 -144
360 -40 81 -145 258 -157 266 -5 3 -9 11 -9 17 0 7 5 4 11 -7 9 -15 13 -16 21
-5z m-2743 -9 c13 -24 -1 -45 -32 -49 -32 -4 -44 23 -21 48 22 24 41 24 53 1z
m2536 -73 c36 -59 42 -75 24 -64 -11 8 -99 141 -99 152 0 15 44 -36 75 -88z
m-8067 56 c-3 -3 -9 2 -12 12 -6 14 -5 15 5 6 7 -7 10 -15 7 -18z m4628 0
c349 -49 606 -141 904 -321 58 -35 119 -75 135 -89 17 -15 -1 -6 -39 20 -38
25 -133 77 -210 115 -416 204 -763 279 -1201 259 -214 -10 -467 -58 -656 -124
-48 -17 -59 -18 -59 -6 0 30 363 128 559 151 117 13 459 11 567 -5z m3684 5
c0 -5 -4 -10 -10 -10 -5 0 -10 5 -10 10 0 6 5 10 10 10 6 0 10 -4 10 -10z
m-103 -52 c-3 -8 -6 -5 -6 6 -1 11 2 17 5 13 3 -3 4 -12 1 -19z m-6459 -96
c38 -37 40 -39 6 -10 -23 20 -65 53 -93 73 -28 20 -51 39 -51 41 0 10 91 -59
138 -104z m4786 75 c4 5 7 4 5 -2 -4 -17 12 -45 22 -39 5 3 8 1 7 -4 -2 -5 9
-24 25 -41 15 -17 23 -31 18 -31 -5 0 -26 23 -47 50 -21 28 -41 50 -44 50 -3
0 -11 10 -19 23 -13 21 -13 22 6 4 11 -9 23 -14 27 -10z m-3954 -7 c0 -5 -5
-10 -11 -10 -5 0 -7 5 -4 10 3 6 8 10 11 10 2 0 4 -4 4 -10z m2 -20 c6 0 8 -7
4 -15 -3 -8 0 -15 6 -15 12 0 5 -11 -8 -13 -5 -1 -21 -15 -36 -30 -15 -16 -32
-26 -37 -22 -6 3 -11 -1 -11 -9 0 -9 -7 -16 -16 -16 -13 0 -14 3 -5 14 10 12
8 13 -11 8 -21 -5 -22 -4 -8 13 13 17 13 18 0 11 -8 -4 7 13 34 39 29 27 55
44 63 40 8 -3 19 -5 25 -5z m-2655 -26 c-9 -9 -28 6 -21 18 4 6 10 6 17 -1 6
-6 8 -13 4 -17z m4728 -9 c283 -43 544 -133 757 -261 45 -28 56 -39 53 -56 -6
-30 -13 -33 -32 -15 -37 32 -312 161 -423 197 -318 105 -659 133 -1000 84
-198 -29 -398 -90 -587 -181 -45 -21 -79 -34 -76 -28 2 5 -3 1 -12 -10 -9 -11
-21 -19 -27 -17 -6 1 -22 -4 -37 -13 l-26 -16 25 22 c14 11 25 26 25 33 0 15
139 87 265 137 193 75 372 118 570 138 125 13 399 5 525 -14z m2310 15 c-3 -5
-16 -15 -28 -21 -19 -9 -19 -8 3 10 28 23 34 26 25 11z m-85 -60 c-19 -17 -38
-30 -44 -30 -9 0 64 58 74 59 3 0 -11 -13 -30 -29z m887 -35 c21 -42 1 -19
-26 30 -13 22 -15 31 -6 20 9 -11 23 -33 32 -50z m-5330 18 c-4 -3 1 -11 10
-18 14 -10 10 -13 -26 -22 -22 -6 -41 -9 -41 -7 0 9 44 54 53 54 6 0 7 -3 4
-7z m4222 -7 c9 -11 6 -12 -14 -8 -14 2 -22 8 -19 13 8 13 20 11 33 -5z
m-6685 -41 c-4 -8 -11 -15 -16 -15 -6 0 -5 6 2 15 7 8 14 15 16 15 2 0 1 -7
-2 -15z m810 -29 c-3 -9 -10 -16 -15 -16 -6 0 -5 9 1 21 13 24 24 20 14 -5z
m1626 14 c0 -4 -6 -13 -14 -19 -11 -10 -15 -9 -18 3 -2 12 -15 5 -53 -26 -48
-41 -36 -17 15 28 23 20 70 30 70 14z m5424 -61 c33 -51 48 -64 68 -64 14 -1
34 -7 43 -15 15 -13 15 -15 -7 -31 l-23 -18 68 -131 c83 -159 122 -250 192
-440 136 -373 205 -687 242 -1093 32 -361 -7 -795 -107 -1157 -73 -269 -129
-432 -130 -378 0 10 7 35 15 55 20 53 101 346 124 451 71 318 97 741 66 1048
-48 459 -136 828 -290 1214 -56 141 -180 400 -215 450 -19 28 -105 189 -95
179 3 -4 25 -35 49 -70z m-986 49 c-2 -7 3 -12 10 -13 6 0 11 -2 10 -5 -4 -11
24 -50 32 -45 5 3 19 -8 31 -25 l23 -30 23 22 c26 24 32 19 7 -6 -14 -14 -8
-26 59 -128 101 -153 172 -278 251 -438 37 -74 72 -144 78 -155 63 -113 175
-449 222 -665 58 -269 81 -648 52 -865 -27 -206 -94 -514 -143 -665 -34 -106
-120 -323 -169 -430 -67 -147 -162 -316 -172 -306 -2 3 2 16 11 29 28 43 86
157 80 157 -3 0 -1 6 5 13 19 23 113 248 167 403 61 173 122 406 160 615 36
196 46 542 20 759 -45 391 -138 688 -345 1100 -130 259 -273 491 -378 615 -28
32 -48 63 -46 67 8 12 14 10 12 -4z m-6907 -35 c-12 -20 -14 -14 -5 12 4 9 9
14 11 11 3 -2 0 -13 -6 -23z m6809 -47 c0 -13 -28 13 -52 48 -22 31 -22 31 15
-4 20 -19 37 -39 37 -44z m-2165 39 c163 -20 385 -77 385 -97 0 -5 4 -7 9 -3
26 15 257 -98 431 -213 191 -124 445 -398 615 -661 66 -102 166 -315 209 -446
101 -306 126 -602 81 -971 -39 -325 -104 -516 -280 -835 -100 -179 -156 -250
-366 -464 -115 -119 -210 -192 -354 -275 -216 -125 -354 -179 -575 -225 -112
-24 -154 -27 -410 -32 -310 -6 -364 -1 -555 53 -221 63 -496 209 -688 367 -91
74 -229 219 -307 322 -129 171 -274 434 -344 624 -51 140 -105 357 -112 455
-3 45 -7 91 -10 104 -4 19 0 22 24 22 29 0 29 0 35 -78 8 -105 49 -293 88
-405 38 -109 102 -260 126 -296 10 -14 18 -30 19 -36 2 -10 19 -40 113 -195
123 -204 351 -448 526 -565 180 -119 324 -185 559 -256 182 -55 270 -70 446
-76 320 -12 626 55 910 196 206 103 332 194 513 370 201 195 416 549 516 847
44 134 91 366 91 456 l0 58 -180 0 -180 0 0 149 c0 127 2 150 16 155 9 3 90 6
180 6 153 0 165 1 160 18 -2 9 -7 53 -11 97 -31 380 -217 792 -517 1142 -212
247 -363 368 -602 484 -66 32 -119 62 -118 65 6 11 -22 24 -28 14 -3 -5 -46 4
-96 20 -166 53 -274 71 -474 77 -145 4 -210 2 -300 -11 -207 -31 -399 -88
-577 -172 -100 -46 -113 -50 -113 -33 0 37 248 143 467 200 222 57 455 72 678
44z m2995 -16 c15 -28 5 -23 -15 7 -9 15 -12 23 -6 20 6 -4 16 -16 21 -27z
m-810 6 c7 -9 8 -15 2 -15 -5 0 -12 7 -16 15 -3 8 -4 15 -2 15 2 0 9 -7 16
-15z m1530 -35 c-8 -5 -17 -7 -19 -4 -3 3 1 9 9 14 8 5 17 7 19 4 3 -3 -1 -9
-9 -14z m-6047 -20 c-3 -11 -12 -20 -20 -20 -13 0 -13 -3 -3 -15 9 -10 9 -15
1 -15 -6 0 -11 6 -11 13 0 8 -4 7 -10 -3 -5 -8 -10 -11 -10 -6 0 7 49 64 57
66 0 0 -1 -9 -4 -20z m-968 0 c3 -5 1 -10 -4 -10 -6 0 -11 5 -11 10 0 6 2 10
4 10 3 0 8 -4 11 -10z m340 -45 c11 -9 2 -7 -20 6 -22 12 -44 26 -50 32 -16
15 48 -20 70 -38z m5190 7 c-8 -9 -35 20 -28 31 4 6 11 3 19 -8 8 -10 12 -21
9 -23z m-5958 -49 c-45 -72 -185 -348 -232 -458 -48 -111 -83 -173 -47 -80 59
146 91 215 174 370 105 197 118 218 125 212 2 -3 -6 -22 -20 -44z m6002 15
c11 -11 12 -10 6 2 -8 13 -7 13 9 1 9 -8 15 -20 12 -28 -3 -8 -2 -11 4 -8 23
14 312 -454 338 -547 20 -73 -3 -45 -78 94 -74 139 -121 217 -174 288 -15 19
-24 40 -21 48 2 7 1 11 -4 8 -5 -4 -31 24 -58 61 -60 82 -67 93 -56 93 5 0 15
-6 22 -12z m-4699 -28 c-6 -11 -13 -20 -16 -20 -2 0 0 9 6 20 6 11 13 20 16
20 2 0 0 -9 -6 -20z m-545 -8 c-3 -3 -11 0 -18 7 -9 10 -8 11 6 5 10 -3 15 -9
12 -12z m108 -15 c-34 -54 -59 -87 -65 -87 -10 0 29 65 47 80 8 7 12 17 8 23
-3 6 -1 7 6 3 6 -4 8 -13 4 -19z m5037 13 c0 -5 -5 -10 -11 -10 -5 0 -7 5 -4
10 3 6 8 10 11 10 2 0 4 -4 4 -10z m-940 -23 c3 1 10 -9 16 -22 11 -22 9 -22
-27 7 -44 35 -50 45 -16 26 12 -7 24 -12 27 -11z m358 12 c-2 -6 -8 -10 -13
-10 -5 0 -11 4 -13 10 -2 6 4 11 13 11 9 0 15 -5 13 -11z m2295 -67 c10 -26
35 -95 56 -153 21 -58 40 -110 43 -115 4 -5 25 -72 48 -148 158 -528 214
-1025 189 -1671 -11 -286 -53 -565 -125 -845 -37 -140 -153 -504 -159 -498 -2
2 22 85 55 183 180 554 238 1004 212 1643 -23 551 -85 872 -281 1456 -65 194
-82 259 -38 148z m-1574 -115 c159 -222 253 -412 265 -538 5 -50 3 -46 -28 49
-39 119 -95 221 -210 382 -80 111 -141 203 -165 247 -11 21 -10 21 15 8 15 -7
70 -74 123 -148z m421 138 c0 -2 -10 -9 -22 -15 -22 -11 -22 -10 -4 4 21 17
26 19 26 11z m-5230 -25 c-14 -9 -7 -14 13 -11 20 3 3 -19 -23 -31 -23 -10
-29 -18 -24 -33 4 -16 3 -17 -5 -5 -7 9 -14 11 -18 5 -5 -5 -17 -17 -28 -25
-14 -10 -12 -6 6 15 14 17 38 47 53 68 15 21 31 36 34 32 4 -3 0 -10 -8 -15z
m1340 3 c0 -12 -37 -42 -101 -83 -56 -36 -113 -75 -127 -87 -14 -12 -30 -19
-35 -16 -6 3 -7 2 -4 -4 9 -15 -49 -54 -70 -47 -15 5 -16 4 -3 -5 14 -10 7
-16 -13 -12 -5 1 -6 -2 -3 -7 3 -5 -38 -51 -90 -103 -280 -277 -452 -573 -542
-934 -36 -141 -58 -262 -68 -360 -7 -68 -15 -85 -43 -85 -36 0 26 348 107 595
39 122 183 412 256 519 115 168 218 278 377 403 105 82 338 243 352 243 4 0 7
-8 7 -17z m-4041 -253 c0 -129 -4 -244 -8 -255 -11 -28 -20 224 -14 383 9 212
23 132 22 -128z m7881 246 c0 -2 -25 -20 -55 -40 -30 -20 -55 -33 -55 -29 0 5
24 22 53 40 55 34 57 35 57 29z m-4390 -26 c14 -10 22 -21 19 -24 -3 -4 -18 5
-33 19 -32 29 -22 33 14 5z m-1246 -34 c-9 -15 -19 -25 -21 -22 -3 2 3 16 13
30 9 15 19 25 21 22 3 -2 -3 -16 -13 -30z m1165 2 c-5 -18 -9 -34 -9 -34 0 -1
-8 0 -17 2 -29 7 -311 -333 -297 -358 4 -7 3 -10 -1 -5 -9 7 -55 -30 -55 -45
0 -4 7 -8 15 -8 22 0 19 -9 -10 -32 -35 -27 -109 -145 -164 -259 -183 -381
-227 -550 -242 -919 -9 -241 -3 -374 26 -589 8 -57 13 -106 11 -108 -24 -24
-63 213 -73 440 -5 126 -9 149 -23 157 -11 6 -19 25 -22 51 -3 35 0 42 18 49
23 9 34 50 34 130 0 63 36 258 66 365 66 233 143 398 327 710 78 132 277 371
371 446 27 21 50 39 52 39 1 0 -2 -15 -7 -32z m2986 -28 c12 -19 -12 -10 -31
11 -19 22 -19 22 3 10 12 -6 25 -16 28 -21z m-80 10 c-3 -5 -12 -10 -18 -10
-7 0 -6 4 3 10 19 12 23 12 15 0z m176 -10 c6 0 7 6 3 13 -4 6 26 -19 65 -58
145 -141 291 -355 430 -634 97 -193 131 -280 176 -457 33 -128 75 -374 75
-444 0 -44 12 -63 33 -54 38 14 11 242 -63 528 -28 109 -49 201 -46 204 6 5
26 -42 26 -62 0 -8 6 -29 14 -47 21 -51 74 -271 91 -384 9 -55 19 -194 22
-310 6 -226 -9 -419 -48 -621 -24 -125 -137 -475 -139 -429 0 6 16 58 36 115
86 255 125 482 128 745 1 166 0 170 -20 173 -20 3 -21 -3 -28 -115 -15 -246
-56 -464 -126 -673 -157 -465 -190 -549 -234 -605 -15 -19 -16 -19 -7 7 6 14
24 54 41 87 39 78 53 116 144 406 84 268 96 315 125 497 63 389 43 638 -80
1033 -63 198 -231 577 -312 703 -54 83 -180 236 -264 320 -35 34 -63 68 -62
75 0 9 2 9 6 0 2 -7 9 -13 14 -13z m-4010 -20 c17 0 9 -20 -48 -109 -156 -242
-196 -313 -227 -393 -18 -50 -22 -53 -44 -39 -13 8 20 84 124 286 54 104 178
289 182 271 2 -9 8 -16 13 -16z m3908 -19 c44 -39 51 -72 10 -51 -11 6 -17 15
-14 20 3 5 0 12 -6 16 -8 4 -9 3 -5 -4 14 -23 -11 -12 -38 17 -20 21 -24 30
-14 34 20 8 20 8 67 -32z m-4169 25 c0 -3 -4 -8 -10 -11 -5 -3 -10 -1 -10 4 0
6 5 11 10 11 6 0 10 -2 10 -4z m-514 -38 c5 -7 3 -8 -6 -3 -10 6 -12 4 -7 -9
5 -11 3 -15 -5 -10 -7 5 -9 2 -6 -7 3 -8 -2 -32 -12 -53 -12 -31 -18 -36 -23
-23 -3 9 -2 17 4 17 6 0 7 5 4 10 -3 6 -1 10 5 10 6 0 8 4 5 10 -5 9 20 70 30
70 2 0 7 -5 11 -12z m-1329 -40 c-3 -8 -6 -5 -6 6 -1 11 2 17 5 13 3 -3 4 -12
1 -19z m1796 7 c-3 -9 -8 -14 -10 -11 -3 3 -2 9 2 15 9 16 15 13 8 -4z m567
-9 c0 -3 -4 -8 -10 -11 -5 -3 -10 -1 -10 4 0 6 5 11 10 11 6 0 10 -2 10 -4z
m705 -14 c6 -4 16 -18 24 -32 8 -14 19 -32 24 -42 9 -13 -9 -35 -96 -123 -117
-115 -126 -119 -165 -65 -21 27 -21 32 -8 57 29 56 182 214 205 213 3 0 11 -4
16 -8z m3049 -21 c42 -36 156 -202 156 -227 0 -2 -11 -10 -24 -19 -22 -15 -25
-13 -136 97 l-113 112 37 33 c37 34 44 34 80 4z m-4348 -8 c-8 -16 -22 -37
-31 -48 -15 -19 -16 -19 -4 5 16 32 40 70 45 70 3 0 -2 -12 -10 -27z m407 -12
c-6 -4 -5 -17 2 -34 6 -15 15 -24 20 -20 6 5 2 -1 -8 -13 -9 -11 -17 -25 -17
-31 0 -6 -9 -13 -21 -16 -12 -3 -18 -10 -15 -16 4 -5 -1 -28 -10 -51 -12 -31
-19 -38 -26 -28 -6 9 -7 6 -3 -8 3 -13 0 -28 -10 -37 -8 -9 -15 -21 -15 -27 0
-6 -4 -9 -8 -6 -4 2 -9 -5 -9 -16 -3 -35 -25 -78 -36 -71 -6 3 -7 1 -3 -6 4
-6 1 -23 -8 -36 -9 -13 -16 -31 -16 -40 0 -10 -5 -13 -12 -9 -7 4 -8 3 -4 -4
4 -6 1 -22 -6 -34 -6 -13 -13 -27 -14 -33 -1 -5 -16 -50 -33 -99 -50 -142
-117 -418 -140 -576 -47 -322 -35 -746 30 -1080 75 -379 255 -756 523 -1093
47 -59 111 -137 143 -173 32 -36 57 -73 55 -82 -2 -12 0 -13 6 -4 6 9 16 3 38
-20 16 -18 23 -28 15 -21 -15 12 -71 -2 -71 -18 0 -17 -53 36 -175 176 -189
217 -291 367 -400 584 -147 296 -231 574 -271 897 -23 189 -23 574 0 784 30
278 137 647 261 905 27 55 49 106 51 112 3 19 31 43 39 35 5 -4 5 -2 2 4 -7
13 26 88 35 79 3 -4 9 -1 14 6 4 8 3 10 -4 5 -18 -11 -14 1 14 44 15 22 31 37
37 33 6 -4 8 0 4 10 -4 10 1 18 14 22 10 4 19 11 19 16 0 6 5 7 11 3 7 -4 7
-9 2 -13z m6257 4 c10 -12 10 -21 2 -40 -14 -31 -40 -32 -51 -2 -17 43 21 75
49 42z m-8459 -18 c-10 -9 -11 -8 -5 6 3 10 9 15 12 12 3 -3 0 -11 -7 -18z
m1285 -29 c-2 -18 -9 -34 -14 -36 -6 -2 -9 -11 -6 -20 5 -16 5 -16 -5 0 -9 13
-7 25 6 52 9 20 18 36 20 36 1 0 1 -14 -1 -32z m8061 0 c-3 -8 -6 -5 -6 6 -1
11 2 17 5 13 3 -3 4 -12 1 -19z m-7982 -28 c13 -5 14 -9 5 -9 -8 0 -24 4 -35
9 -13 5 -14 9 -5 9 8 0 24 -4 35 -9z m95 -30 c18 -12 2 -12 -25 0 -13 6 -15 9
-5 9 8 0 22 -4 30 -9z m-206 -16 c4 -9 2 -13 -5 -8 -7 4 -9 0 -5 -13 4 -14 2
-20 -9 -20 -18 0 -18 -1 -5 31 11 30 16 32 24 10z m476 2 c0 -3 -4 -8 -10 -11
-5 -3 -10 -1 -10 4 0 6 5 11 10 11 6 0 10 -2 10 -4z m3145 -26 c129 -29 207
-56 315 -110 295 -148 528 -381 673 -675 103 -208 145 -370 154 -601 22 -530
-187 -996 -576 -1285 -176 -131 -336 -204 -549 -251 -138 -31 -404 -30 -545 0
-294 65 -525 189 -733 396 -264 263 -411 610 -431 1012 -16 346 74 665 263
930 77 109 241 277 261 270 8 -3 12 -2 8 3 -12 20 232 188 249 171 5 -5 16
-10 24 -10 12 0 12 3 1 17 -8 9 -9 14 -2 10 6 -4 13 -2 15 4 2 7 9 5 17 -5 12
-14 12 -16 -4 -10 -12 5 -16 4 -11 -4 3 -6 -3 -16 -14 -22 -15 -8 -20 -8 -21
2 0 7 -5 4 -10 -7 -14 -28 -95 -76 -116 -69 -14 5 -15 4 -4 -4 11 -8 10 -12
-6 -20 -15 -8 -24 -8 -33 1 -12 10 -12 9 -2 -4 10 -13 2 -24 -53 -68 -191
-155 -348 -385 -423 -621 -106 -333 -101 -660 18 -1022 95 -289 282 -534 537
-701 230 -151 451 -217 729 -217 363 0 671 126 925 380 141 140 210 243 295
443 37 85 44 137 19 137 -8 0 -15 -4 -15 -10 0 -5 -11 -10 -25 -10 -18 0 -25
5 -25 20 0 11 -4 20 -10 20 -5 0 -10 9 -10 20 0 13 -7 20 -20 20 -11 0 -20 5
-20 10 0 6 9 10 20 10 16 0 20 7 20 30 0 23 -4 30 -20 30 -19 0 -20 7 -20 100
0 60 -4 100 -10 100 -6 0 -10 33 -10 80 0 47 4 80 10 80 6 0 10 18 10 40 0 22
5 40 10 40 6 0 10 18 10 40 0 22 5 40 10 40 6 0 10 27 10 60 0 33 4 60 10 60
6 0 10 9 10 20 0 13 7 20 20 20 11 0 20 5 20 10 0 6 9 10 20 10 26 0 37 43 21
85 -16 44 -12 68 4 25 21 -56 17 -20 -6 48 -11 34 -25 62 -30 62 -5 0 -8 3 -7
8 4 12 -24 72 -34 72 -5 0 -7 4 -4 8 6 11 -68 138 -122 211 -108 143 -257 280
-398 364 -232 139 -438 197 -700 197 -76 0 -134 4 -134 9 0 5 -10 12 -22 14
-13 3 4 3 37 1 45 -3 55 -2 40 6 -38 19 290 3 390 -20z m-3315 4 c23 -9 39
-18 37 -20 -2 -3 -24 4 -48 15 -54 24 -45 27 11 5z m2815 -24 c-28 -12 -47
-12 -40 0 3 6 18 10 33 9 24 0 25 -1 7 -9z m-2681 -24 c-7 -18 -20 -21 -29 -6
-3 6 1 10 9 10 9 0 16 5 16 12 0 6 2 9 5 6 3 -3 3 -13 -1 -22z m2615 10 c-2
-2 -22 -6 -44 -10 -29 -5 -36 -4 -25 3 13 10 79 16 69 7z m-154 -44 c-11 -2
-24 -8 -30 -12 -5 -4 -27 -15 -47 -23 -29 -12 -39 -13 -47 -3 -8 9 -5 12 12
12 14 -1 21 4 19 13 -3 12 0 12 12 2 17 -14 40 -5 33 13 -3 8 6 10 32 7 23 -3
29 -6 16 -9z m-2959 -31 c-1 -16 -5 -26 -10 -23 -5 3 -7 -2 -3 -11 3 -10 3
-17 -2 -17 -5 0 -8 -11 -8 -23 0 -34 -96 -317 -105 -311 -4 3 -8 3 -8 -1 0 -3
10 -10 23 -15 22 -9 22 -9 1 -9 -21 -1 -29 -19 -49 -106 -5 -21 -45 -240 -46
-250 0 -5 -5 -1 -10 10 -6 14 -8 4 -5 -35 4 -41 3 -47 -3 -25 -11 38 -11 33
-20 -175 -14 -375 -2 -633 41 -860 107 -573 320 -1065 681 -1575 181 -256 307
-398 587 -667 227 -218 307 -283 526 -427 245 -161 258 -172 59 -51 -308 187
-411 268 -693 542 -220 214 -304 311 -518 603 -70 95 -244 366 -244 380 0 2
-15 28 -34 57 -202 318 -380 873 -436 1367 -8 66 -11 196 -8 355 3 210 7 257
21 285 9 19 17 39 16 45 0 6 -4 2 -9 -9 -15 -35 -11 5 15 161 40 235 157 641
177 613 7 -10 8 -8 5 9 -3 12 -1 22 3 22 4 0 6 10 2 22 -4 16 -2 19 8 13 9 -6
11 -4 6 4 -6 10 30 131 39 131 1 0 2 -13 1 -29z m484 25 c0 -2 -7 -9 -15 -16
-13 -11 -14 -10 -9 4 5 14 24 23 24 12z m1075 -66 c-3 -5 -11 -10 -16 -10 -6
0 -7 5 -4 10 3 6 11 10 16 10 6 0 7 -4 4 -10z m-2849 -26 c-4 -9 -9 -15 -11
-12 -3 3 -3 13 1 22 4 9 9 15 11 12 3 -3 3 -13 -1 -22z m7609 6 c3 -5 1 -10
-4 -10 -6 0 -11 5 -11 10 0 6 2 10 4 10 3 0 8 -4 11 -10z m-1073 -98 c137
-214 288 -642 328 -927 18 -135 24 -361 11 -495 -21 -215 -68 -405 -161 -646
-60 -154 -67 -166 -108 -170 l-32 -4 16 38 c80 184 174 503 205 697 21 132 17
435 -9 600 -43 276 -124 529 -245 764 -58 113 -77 160 -73 177 10 37 28 28 68
-34z m1173 -109 c127 -369 165 -513 196 -743 18 -132 20 -184 15 -349 -3 -107
-10 -197 -15 -200 -5 -3 -13 -40 -19 -81 -9 -68 -9 -64 -4 40 4 63 7 205 6
315 -2 295 -37 475 -174 894 -38 118 -70 218 -70 223 0 4 6 8 14 8 8 0 28 -41
51 -107z m822 91 c8 -20 -21 -49 -41 -41 -23 9 -32 37 -15 48 22 14 49 11 56
-7z m-974 -96 c21 -45 38 -88 42 -108 1 -3 9 -22 18 -43 37 -86 98 -277 91
-288 -4 -8 -3 -9 4 -5 7 4 12 4 12 1 0 -4 11 -48 24 -98 13 -51 29 -121 35
-157 24 -129 33 -161 50 -173 12 -9 17 -32 20 -89 3 -74 2 -77 -20 -82 -85
-20 -117 -26 -141 -26 -27 0 -28 2 -28 47 0 26 -5 62 -12 80 -15 42 -6 51 65
73 l52 16 -3 45 c-3 59 -28 183 -58 294 -26 93 -133 413 -160 475 -8 20 -16
42 -17 50 -2 8 -6 21 -10 28 -5 6 -4 12 2 12 5 0 21 -24 34 -52z m-4774 -12
c9 -11 6 -28 -14 -78 -15 -34 -29 -86 -32 -114 l-6 -52 -48 2 c-55 3 -67 9
-52 28 6 7 20 39 32 71 50 137 88 182 120 143z m-3132 -108 c-2 -13 -4 -3 -4
22 0 25 2 35 4 23 2 -13 2 -33 0 -45z m5133 -14 c128 -102 584 -412 730 -496
85 -49 95 -58 95 -83 0 -25 -10 -36 -65 -74 -142 -97 -236 -165 -247 -179 -14
-17 -18 -239 -5 -258 6 -10 152 -107 295 -198 83 -52 81 -58 -83 -175 -76 -55
-483 -369 -687 -530 -56 -45 -113 -85 -127 -90 -27 -11 -56 8 -222 139 l-72
57 59 43 c33 24 59 47 59 51 0 4 -18 22 -39 40 l-40 31 60 45 c78 57 82 69 36
106 l-37 29 0 254 c0 242 1 254 20 264 46 25 138 110 136 127 0 10 -18 30 -38
45 -53 39 -306 191 -345 207 -18 7 -33 19 -33 27 0 15 47 85 207 306 125 173
193 272 193 283 0 4 -26 -12 -57 -35 -61 -44 -292 -198 -548 -365 -82 -54
-176 -112 -207 -128 -32 -16 -58 -32 -58 -36 1 -17 24 -35 110 -82 52 -28 143
-82 201 -120 58 -38 111 -69 117 -69 9 0 12 -54 12 -199 l0 -199 -52 -30 c-29
-16 -102 -62 -163 -101 -60 -40 -120 -74 -132 -77 -16 -4 -35 5 -73 37 -27 23
-50 49 -50 58 0 9 20 30 43 47 23 17 108 80 189 139 81 59 153 114 159 121 9
11 -17 43 -123 151 -271 278 -305 319 -295 346 3 7 58 46 123 87 66 40 241
155 389 254 336 225 398 265 444 281 42 15 37 17 121 -51z m-4474 -170 c-14
-104 -31 -220 -37 -259 -19 -117 -15 -834 5 -985 30 -229 68 -433 113 -614 47
-187 52 -246 9 -105 -127 419 -184 961 -157 1489 10 209 76 710 88 674 2 -7
-8 -97 -21 -200z m-659 54 c-2 -18 -4 -6 -4 27 0 33 2 48 4 33 2 -15 2 -42 0
-60z m1876 35 c-7 -2 -19 -2 -25 0 -7 3 -2 5 12 5 14 0 19 -2 13 -5z m-832
-180 c-39 -244 -46 -344 -46 -623 1 -312 15 -461 70 -735 44 -221 102 -420
182 -628 35 -93 62 -171 59 -174 -17 -17 -138 295 -191 492 -134 489 -174 988
-120 1462 14 120 19 150 46 289 20 105 21 46 0 -83z m5206 -95 c-3 -8 -6 -5
-6 6 -1 11 2 17 5 13 3 -3 4 -12 1 -19z m-4357 -62 c0 -3 -4 -8 -10 -11 -5 -3
-10 -1 -10 4 0 6 5 11 10 11 6 0 10 -2 10 -4z m-483 -68 c-3 -7 -5 -2 -5 12 0
14 2 19 5 13 2 -7 2 -19 0 -25z m-840 -25 c-3 -10 -5 -2 -5 17 0 19 2 27 5 18
2 -10 2 -26 0 -35z m8326 -12 c-6 -3 -13 -13 -16 -21 -4 -11 -6 -9 -6 6 -1 24
8 36 21 27 7 -3 7 -8 1 -12z m-8336 -513 c-1 -79 -3 -15 -3 142 0 157 2 221 3
143 2 -79 2 -207 0 -285z m1270 320 c-3 -8 -6 -5 -6 6 -1 11 2 17 5 13 3 -3 4
-12 1 -19z m6949 -8 c0 -11 -4 -20 -8 -20 -4 0 -8 2 -8 4 0 2 -3 11 -6 20 -4
10 -1 16 8 16 7 0 14 -9 14 -20z m-6959 -167 c-2 -21 -4 -6 -4 32 0 39 2 55 4
38 2 -18 2 -50 0 -70z m1664 -58 c-2 -82 -5 -151 -6 -153 -2 -2 -89 0 -194 4
l-191 7 0 149 0 148 198 -2 197 -3 -4 -150z m5859 96 c0 -13 -37 -24 -50 -16
-6 4 -8 11 -5 16 8 12 55 12 55 0z m240 -131 c0 -11 -4 -20 -10 -20 -5 0 -10
9 -10 20 0 11 5 20 10 20 6 0 10 -9 10 -20z m-7763 -42 c-2 -13 -4 -5 -4 17
-1 22 1 32 4 23 2 -10 2 -28 0 -40z m6329 -91 c-4 -29 -8 -80 -11 -115 -3 -35
-7 -68 -10 -73 -4 -5 -8 -19 -10 -30 -8 -43 -18 -33 -11 11 3 25 9 100 13 167
5 107 8 120 21 107 11 -11 13 -28 8 -67z m-6329 -39 c-2 -18 -4 -6 -4 27 0 33
2 48 4 33 2 -15 2 -42 0 -60z m4303 32 c0 -5 -4 -10 -10 -10 -5 0 -10 5 -10
10 0 6 5 10 10 10 6 0 10 -4 10 -10z m-5553 -162 c-2 -18 -4 -4 -4 32 0 36 2
50 4 33 2 -18 2 -48 0 -65z m-380 25 c-3 -10 -5 -4 -5 12 0 17 2 24 5 18 2 -7
2 -21 0 -30z m-77 -53 c0 -5 -7 -10 -15 -10 -8 0 -15 5 -15 10 0 6 7 10 15 10
8 0 15 -4 15 -10z m-114 -622 c-3 -315 -6 -717 -7 -893 -2 -232 -4 -293 -9
-220 -4 55 -8 457 -9 893 -1 709 1 792 15 792 13 0 14 -60 10 -572z m8109 545
c-17 -84 -50 -219 -54 -223 -3 -3 -6 -14 -7 -25 -1 -49 -79 -282 -87 -262 -3
9 3 42 14 74 21 61 35 111 69 253 31 129 52 200 61 200 4 0 6 -8 4 -17z
m-5177 -62 c8 -4 29 -62 47 -127 59 -210 125 -363 233 -541 l49 -81 -29 -4
c-21 -3 -35 2 -52 19 -28 27 -139 242 -189 363 -37 89 -127 352 -127 370 0 12
49 13 68 1z m3332 -81 c0 -5 -2 -10 -4 -10 -3 0 -8 5 -11 10 -3 6 -1 10 4 10
6 0 11 -4 11 -10z m3759 -1297 c-2 -1604 -9 -2150 -27 -2110 -9 22 -12 397
-12 1723 0 1687 0 1694 20 1694 20 0 20 -6 19 -1307z m-2565 1272 c-4 -8 -11
-12 -16 -9 -6 4 -8 1 -6 -7 3 -8 11 -13 17 -11 6 1 11 -2 11 -7 0 -14 -39 -9
-44 6 -8 21 5 43 25 43 12 0 16 -5 13 -15z m-7377 -27 c-3 -7 -5 -2 -5 12 0
14 2 19 5 13 2 -7 2 -19 0 -25z m109 -475 c1 -230 6 -643 11 -918 8 -501 3
-1271 -8 -1205 -4 26 -7 13 -10 -45 -2 -44 -6 114 -9 350 -6 492 0 2248 8
2241 3 -3 6 -194 8 -423z m9194 372 c0 -20 -5 -25 -23 -25 -30 0 -36 6 -30 31
3 12 14 19 29 19 19 0 24 -5 24 -25z m-9303 -57 c-2 -13 -4 -5 -4 17 -1 22 1
32 4 23 2 -10 2 -28 0 -40z m209 12 c13 0 24 -4 24 -9 0 -5 10 -11 23 -15 19
-5 26 -24 61 -168 51 -209 215 -699 301 -898 74 -171 173 -372 243 -495 104
-183 320 -491 394 -562 l33 -33 54 52 c36 35 51 55 45 63 -32 43 -235 352
-266 405 -41 70 -46 90 -23 90 14 0 59 -65 204 -294 57 -90 126 -176 142 -176
5 0 20 -10 34 -22 19 -17 22 -24 13 -35 -9 -11 -2 -24 35 -61 26 -26 47 -50
47 -52 0 -3 -14 -6 -31 -7 -47 -4 -55 -17 -14 -25 44 -7 51 -68 8 -68 -14 0
-14 -2 1 -22 29 -41 39 -61 27 -54 -6 4 -11 1 -11 -6 0 -7 11 -18 25 -25 16
-7 23 -7 18 -1 -4 7 -1 8 6 3 7 -4 11 -15 8 -24 -2 -10 1 -18 9 -18 7 0 10 5
7 11 -4 6 3 3 15 -8 12 -10 19 -23 16 -28 -3 -4 -2 -7 3 -6 10 3 64 -40 77
-60 10 -16 -11 -42 -33 -42 -10 0 -28 12 -42 26 -40 43 -170 147 -176 140 -6
-6 38 -62 116 -146 47 -51 63 -91 42 -104 -5 -3 -20 3 -34 14 -42 33 -276 297
-270 304 4 3 24 6 45 6 21 0 38 5 38 10 0 6 7 10 15 10 8 0 15 4 15 9 0 5 16
12 35 15 42 8 43 15 9 47 -14 13 -35 41 -45 61 -17 34 -21 37 -39 26 -24 -15
-25 -22 -4 -38 37 -32 41 -82 4 -73 -10 3 -36 -8 -60 -26 -24 -17 -46 -31 -50
-31 -17 0 -133 116 -203 205 -43 55 -84 107 -90 115 -83 104 -284 425 -365
581 -99 192 -217 471 -277 659 -15 47 -34 91 -43 98 -9 6 -11 12 -5 12 13 0 4
36 -51 212 -46 146 -89 353 -81 390 4 15 3 28 -2 28 -5 0 -9 17 -9 38 -1 20 1
29 3 20 3 -11 14 -18 29 -18z m-209 -107 c-2 -16 -4 -5 -4 22 0 28 2 40 4 28
2 -13 2 -35 0 -50z m8003 -47 c0 -3 -4 -8 -10 -11 -5 -3 -10 -1 -10 4 0 6 5
11 10 11 6 0 10 -2 10 -4z m-120 -46 c0 -5 -8 -10 -17 -10 -15 0 -16 2 -3 10
19 12 20 12 20 0z m87 -31 c-6 -10 -13 -15 -15 -9 -6 17 7 42 18 35 6 -4 5
-13 -3 -26z m-5604 -547 c35 -53 98 -145 139 -204 42 -58 74 -109 70 -112 -3
-3 6 -6 20 -6 14 0 33 -9 43 -20 10 -11 16 -20 14 -20 -2 0 28 -34 67 -76 48
-51 70 -82 67 -94 -3 -11 9 -31 34 -55 l38 -37 -47 32 -47 33 -28 -19 c-15
-10 -32 -17 -37 -16 -5 2 -5 -5 -2 -15 6 -15 5 -15 -13 1 -11 10 -18 23 -14
29 3 5 1 7 -4 4 -11 -7 -86 67 -118 117 -10 15 -29 32 -42 37 -13 5 -23 17
-23 28 0 23 48 64 67 57 24 -10 13 13 -45 91 -32 43 -87 120 -122 172 -82 123
-290 533 -290 572 0 5 47 -83 105 -196 58 -113 133 -249 168 -303z m5568 455
c-6 -15 -15 -27 -21 -27 -13 0 -13 3 8 46 19 40 29 24 13 -19z m-5037 -22 c21
-18 115 -185 105 -185 -10 0 -41 27 -38 32 2 3 -27 58 -71 133 -16 28 -29 55
-29 60 0 6 5 1 11 -10 6 -11 16 -24 22 -30z m3916 17 c-17 -6 -11 -25 16 -53
l26 -28 -48 -96 c-29 -56 -58 -101 -70 -107 -25 -12 -121 5 -149 26 -17 12
-14 19 42 97 33 46 70 102 81 125 20 39 23 41 66 40 25 -1 41 -2 36 -4z m1943
1 c-7 -2 -13 -12 -13 -20 0 -10 6 -13 16 -9 8 3 12 2 9 -4 -10 -17 -35 -11
-35 8 0 21 9 32 24 31 6 0 5 -3 -1 -6z m-843 -43 c0 -5 -4 -10 -10 -10 -5 0
-10 5 -10 10 0 6 5 10 10 10 6 0 10 -4 10 -10z m-10 -30 c0 -5 -7 -10 -16 -10
-8 0 -12 5 -9 10 3 6 10 10 16 10 5 0 9 -4 9 -10z m-30 -43 c0 -15 -43 -87
-49 -82 -10 6 27 85 40 85 5 0 9 -1 9 -3z m-4845 -106 c3 -5 1 -12 -5 -16 -5
-3 -10 1 -10 9 0 18 6 21 15 7z m4771 -57 c-15 -14 -16 -14 -16 3 0 26 24 50
28 29 2 -9 -4 -23 -12 -32z m-4742 11 c3 -8 1 -15 -5 -15 -6 0 -7 -5 -4 -11 4
-6 13 -8 20 -5 9 3 11 -3 9 -17 -2 -12 -1 -16 2 -9 8 18 44 -14 44 -40 0 -11
4 -17 9 -14 5 3 14 -8 20 -24 5 -17 15 -30 22 -30 7 0 9 -3 6 -7 -4 -3 -1 -13
6 -21 7 -10 7 -13 1 -9 -11 7 -97 110 -149 180 -26 35 -26 37 -7 37 11 0 22
-7 26 -15z m5396 3 c0 -4 -9 -8 -20 -8 -11 0 -20 4 -20 9 0 6 9 9 20 8 11 -1
20 -5 20 -9z m-5157 -41 c-2 -4 -3 -11 -3 -17 0 -5 -6 -10 -14 -10 -18 0 -29
16 -22 29 7 10 42 8 39 -2z m4487 -27 c0 -5 -7 -10 -15 -10 -8 0 -15 5 -15 10
0 6 7 10 15 10 8 0 15 -4 15 -10z m-20 -29 c0 -5 -7 -11 -14 -14 -10 -4 -13
-1 -9 9 6 15 23 19 23 5z m-990 -14 c0 -21 -173 -228 -261 -312 -357 -341
-849 -568 -1335 -616 -146 -14 -422 -6 -554 16 -188 32 -464 110 -590 168 -30
13 -65 28 -78 32 -12 3 -19 11 -16 17 4 6 2 8 -4 4 -17 -10 -170 80 -334 195
-116 83 -321 276 -314 296 3 8 2 12 -3 9 -4 -3 -17 4 -27 15 -47 52 44 -15
154 -113 64 -58 152 -131 196 -163 195 -144 527 -312 691 -351 17 -4 33 -11
36 -16 3 -5 21 -11 40 -13 43 -5 121 -26 134 -35 19 -14 119 -29 270 -40 208
-16 455 3 655 49 215 49 481 161 675 284 171 108 450 350 571 495 75 89 94
105 94 79z m320 -2 c0 -8 -4 -15 -10 -15 -5 0 -10 7 -10 15 0 8 5 15 10 15 6
0 10 -7 10 -15z m-5537 -26 c4 -16 3 -18 -9 -8 -16 13 -19 29 -5 29 5 0 11 -9
14 -21z m6167 -39 c0 -5 -2 -10 -4 -10 -3 0 -8 5 -11 10 -3 6 -1 10 4 10 6 0
11 -4 11 -10z m-6064 -146 c36 -60 66 -113 67 -119 1 -5 12 -21 25 -35 12 -14
20 -31 17 -38 -3 -7 -1 -11 4 -7 5 3 19 -12 32 -32 65 -110 184 -283 194 -283
6 0 16 5 23 12 8 8 15 9 22 2 7 -7 4 -16 -10 -29 -21 -19 -27 -50 -10 -60 5
-3 41 -43 79 -88 119 -142 201 -217 237 -217 11 0 174 -162 213 -212 l21 -27
-24 -28 c-20 -23 -24 -25 -23 -9 2 24 -16 31 -34 14 -25 -24 -50 -13 -124 52
-80 71 -100 103 -89 143 8 35 -1 34 -20 0 -8 -16 -15 -23 -16 -18 0 18 31 56
54 65 l21 9 -22 0 c-12 1 -46 24 -77 51 -67 62 -210 236 -202 248 2 4 -8 21
-25 36 -16 15 -29 32 -29 37 0 6 -18 36 -39 67 -90 131 -283 457 -324 547 -28
59 -14 41 59 -81z m1869 66 c10 -15 232 -191 301 -237 91 -62 295 -166 426
-217 198 -78 347 -111 546 -123 110 -6 112 -6 112 15 0 13 6 22 16 22 8 0 12
5 9 10 -3 6 -2 10 4 10 6 0 18 -14 27 -31 l16 -32 96 7 c358 26 598 99 882
269 86 52 138 89 220 157 59 48 84 62 96 50 6 -6 33 12 72 51 68 66 89 71 111
25 13 -29 13 -30 -35 -72 -60 -53 -80 -61 -103 -40 -17 16 -22 13 -72 -34
-142 -133 -437 -297 -664 -369 -243 -78 -552 -114 -782 -93 -330 31 -719 166
-993 343 -130 84 -232 167 -223 182 4 7 -8 -1 -26 -16 l-34 -28 -53 52 c-57
56 -57 53 -11 106 20 22 46 19 62 -7z m5325 -32 c0 -18 -2 -20 -9 -9 -7 10 -9
6 -8 -15 0 -16 0 -63 -1 -105 l-2 -76 -56 -42 c-66 -50 -88 -50 -92 -1 -5 50
18 171 37 194 20 24 101 76 118 76 7 0 13 -10 13 -22z m-8859 -554 c-8 -54 -9
-25 -6 131 3 110 6 252 7 315 2 63 4 5 5 -131 2 -135 -1 -276 -6 -315z m7759
546 c0 -5 -8 -10 -17 -10 -15 0 -16 2 -3 10 19 12 20 12 20 0z m-7522 -716 c4
2 8 -26 10 -62 1 -36 6 -68 10 -71 18 -13 105 -146 177 -271 107 -186 283
-470 421 -682 35 -53 66 -108 70 -122 3 -15 10 -29 15 -32 13 -7 11 -54 -2
-54 -5 0 -8 3 -5 8 2 4 -14 6 -36 4 -28 -3 -36 -7 -27 -13 8 -5 10 -9 4 -9
-30 0 -33 17 -5 34 17 9 30 22 30 28 0 6 -53 90 -118 187 -65 97 -172 257
-238 356 -124 185 -270 428 -273 455 -7 66 -15 100 -23 100 -6 0 -8 -14 -5
-33 7 -43 -3 -94 -14 -75 -5 7 -8 225 -6 483 2 443 2 450 4 117 2 -194 7 -351
11 -348z m2152 446 c0 -5 -2 -10 -4 -10 -3 0 -8 5 -11 10 -3 6 -1 10 4 10 6 0
11 -4 11 -10z m7320 -40 c0 -5 -4 -10 -10 -10 -5 0 -10 5 -10 10 0 6 5 10 10
10 6 0 10 -4 10 -10z m-8252 -33 c2 -11 -3 -17 -17 -17 -23 0 -35 15 -26 31
10 15 39 6 43 -14z m7472 -63 c0 -8 -4 -12 -10 -9 -5 3 -10 10 -10 16 0 5 5 9
10 9 6 0 10 -7 10 -16z m-290 -8 c0 -3 -4 -8 -10 -11 -5 -3 -10 -1 -10 4 0 6
5 11 10 11 6 0 10 -2 10 -4z m-600 -97 c0 -25 -244 -338 -398 -509 -112 -124
-343 -341 -355 -333 -6 3 -7 2 -4 -4 9 -14 -51 -66 -65 -57 -6 4 -8 3 -5 -3 4
-6 -5 -15 -18 -21 -14 -7 -24 -17 -23 -24 2 -7 -6 -12 -17 -13 -11 0 -20 -7
-20 -15 0 -8 -8 -14 -17 -12 -9 1 -20 -3 -24 -9 -4 -8 -3 -9 4 -5 7 4 12 5 12
3 0 -6 -86 -57 -96 -57 -13 0 20 32 81 78 202 155 462 403 624 597 138 165
301 374 301 386 0 5 5 9 10 9 6 0 10 -5 10 -11z m-7668 -114 c17 -33 63 -118
103 -190 71 -127 139 -252 173 -317 9 -18 19 -35 22 -38 3 -3 15 -24 28 -47
17 -32 19 -41 7 -37 -8 4 -15 11 -15 17 0 6 -35 65 -79 131 -142 219 -311 532
-311 578 0 22 1 21 21 -7 11 -16 34 -57 51 -90z m9224 33 c-8 -18 -21 -49 -30
-70 -9 -20 -16 -38 -16 -41 0 -22 -284 -494 -421 -700 -125 -187 -377 -525
-458 -612 -25 -28 -72 -83 -104 -122 -132 -162 -291 -292 -647 -530 -287 -191
-475 -306 -639 -389 -80 -40 -153 -78 -161 -84 -10 -7 211 -10 730 -9 745 1
745 1 748 -20 l3 -20 -1313 0 c-875 0 -1331 -4 -1367 -11 -30 -5 -63 -18 -74
-28 -18 -16 -19 -16 -14 15 3 17 8 37 12 42 4 8 139 11 419 11 382 0 417 1
469 19 72 25 391 198 647 351 279 167 319 193 595 385 218 152 475 389 657
605 101 120 245 322 342 478 87 139 304 504 325 544 8 16 16 26 19 23 16 -16
-328 -588 -499 -830 -258 -365 -510 -609 -949 -916 -262 -185 -751 -474 -1028
-609 -39 -19 -72 -38 -72 -42 0 -11 141 -10 220 2 112 16 458 201 788 422 219
147 470 323 555 391 268 212 732 838 1068 1439 89 160 198 338 206 338 1 0 -4
-15 -11 -32z m-8512 -3 c-4 -8 -2 -15 4 -15 5 0 12 -7 16 -15 3 -8 2 -15 -2
-15 -12 0 -33 40 -27 50 9 15 15 12 9 -5z m1726 -10 c13 -14 21 -25 18 -25 -2
0 -15 11 -28 25 -13 14 -21 25 -18 25 2 0 15 -11 28 -25z m0 -160 c163 -144
378 -310 492 -381 80 -49 100 -65 48 -39 -86 44 -333 225 -503 370 -65 55
-138 116 -162 135 -43 34 -54 50 -36 50 5 0 77 -61 161 -135z m75 95 c21 -22
37 -40 34 -40 -3 0 -23 18 -44 40 -21 22 -37 40 -34 40 3 0 23 -18 44 -40z
m-1294 -62 c30 -35 77 -89 107 -122 51 -56 52 -59 37 -82 -8 -13 -15 -30 -15
-39 0 -31 -27 -13 -114 77 -85 88 -128 154 -108 167 5 3 12 18 16 34 3 15 10
27 15 27 5 0 33 -28 62 -62z m8124 -1056 l0 -1097 -77 4 -77 3 -7 -71 c-3 -39
-9 -73 -13 -75 -3 -2 -138 -7 -300 -11 l-294 -7 4 231 c4 226 4 230 26 236 12
3 23 13 25 22 2 9 13 17 26 18 22 2 22 1 5 -19 -16 -19 -18 -42 -15 -228 l3
-208 227 0 c164 0 231 3 240 12 7 7 12 30 12 51 l0 39 -185 -4 c-102 -2 -184
0 -183 4 2 3 65 72 140 151 l137 145 3 133 c3 128 4 134 24 137 12 2 29 -5 38
-14 15 -15 17 -42 14 -260 l-3 -244 38 0 37 0 0 260 c0 253 1 260 20 260 19 0
20 -8 22 -263 3 -253 4 -262 23 -265 49 -6 47 -31 53 719 6 776 8 1239 5 1239
-1 0 -19 -30 -39 -67 -50 -90 -282 -463 -304 -488 -31 -36 -216 -317 -272
-415 l-55 -95 111 -49 110 -49 20 26 c12 15 55 79 96 144 171 270 264 406 268
394 2 -7 -2 -17 -9 -22 -10 -6 -10 -9 -2 -9 7 0 10 -7 7 -15 -4 -8 -10 -12
-15 -9 -8 5 -13 -9 -10 -28 3 -19 -57 -103 -72 -100 -8 1 -18 -2 -22 -8 -3 -6
0 -7 9 -4 9 3 16 2 16 -3 0 -17 -31 -52 -43 -49 -6 1 -9 1 -4 -1 4 -3 7 -9 7
-14 0 -17 -73 -119 -81 -113 -5 3 -7 -1 -4 -8 3 -7 -26 -58 -63 -113 -84 -125
-95 -130 -188 -85 -38 18 -94 40 -124 50 -89 27 -87 32 147 395 318 494 453
719 494 830 19 49 47 105 53 105 0 0 1 -494 1 -1098z m-8265 1068 c0 -5 -7
-10 -15 -10 -8 0 -15 5 -15 10 0 6 7 10 15 10 8 0 15 -4 15 -10z m5685 -68
c-136 -129 -405 -334 -405 -309 0 7 24 28 53 47 98 65 407 318 407 333 0 6 3
7 8 3 4 -4 -25 -38 -63 -74z m889 21 c-59 -75 -105 -125 -288 -318 -217 -227
-266 -274 -280 -269 -7 3 -18 -6 -25 -19 -20 -37 -299 -247 -329 -247 -8 0 22
25 69 57 46 31 89 61 95 67 6 6 33 29 60 51 119 97 537 509 663 653 72 82 93
96 35 25z m-5019 -13 c21 -22 37 -40 34 -40 -3 0 -23 18 -44 40 -21 22 -37 40
-34 40 3 0 23 -18 44 -40z m-2341 -56 c3 -8 2 -12 -4 -9 -6 3 -10 10 -10 16 0
14 7 11 14 -7z m1336 1 c7 -8 8 -15 2 -15 -5 0 -15 7 -22 15 -7 8 -8 15 -2 15
5 0 15 -7 22 -15z m41 -42 c13 -16 12 -17 -3 -4 -10 7 -18 15 -18 17 0 8 8 3
21 -13z m-1220 -218 c57 -93 106 -174 108 -180 2 -5 11 -19 21 -30 9 -11 55
-78 100 -150 183 -286 425 -562 655 -745 227 -182 747 -541 1030 -713 28 -17
136 -75 240 -129 194 -99 224 -121 96 -69 -177 74 -536 296 -1081 670 -233
160 -496 386 -602 516 -27 33 -64 78 -83 100 -106 127 -203 266 -439 631 -64
99 -181 303 -163 284 8 -8 61 -91 118 -185z m1669 -269 c114 -117 221 -212
376 -334 49 -38 4 -11 -82 49 -153 109 -317 268 -549 534 -112 127 -107 130
11 5 60 -63 169 -177 244 -254z m5490 306 c0 -8 -93 -111 -171 -189 -23 -23
-47 -40 -52 -36 -6 3 -3 11 8 19 32 23 79 70 144 143 64 71 71 78 71 63z m495
0 c-6 -4 -49 -54 -96 -112 -48 -58 -97 -114 -110 -125 -13 -11 1 9 30 45 30
36 79 95 109 133 31 37 61 67 66 67 8 0 8 -3 1 -8z m-6475 -79 c0 -11 -41 31
-52 52 -6 11 4 5 21 -13 17 -18 31 -36 31 -39z m-298 -88 c147 -152 238 -233
454 -406 225 -180 249 -204 59 -58 -222 169 -334 263 -489 412 -87 84 -171
159 -187 168 -16 9 -26 19 -22 23 21 21 56 -5 185 -139z m5018 117 c0 -6 -91
-68 -145 -97 -11 -6 -38 -23 -61 -37 -115 -74 -390 -194 -556 -244 -390 -117
-707 -161 -1083 -151 -270 8 -511 42 -738 104 -95 27 -56 26 49 -1 216 -55
531 -96 731 -96 158 0 357 17 528 45 139 22 447 96 554 132 196 66 480 200
616 292 90 60 105 68 105 53z m-4690 -57 c14 -19 14 -19 -2 -6 -10 7 -18 18
-18 24 0 6 1 8 3 6 1 -2 9 -13 17 -24z m145 -128 c6 -6 -3 -1 -20 11 -16 11
-48 40 -70 63 -34 37 -31 35 20 -11 33 -29 65 -58 70 -63z m1275 57 c0 -2 -13
2 -30 11 -16 9 -30 18 -30 21 0 2 14 -2 30 -11 17 -9 30 -18 30 -21z m4790 -3
c0 -12 -20 -25 -27 -18 -7 7 6 27 18 27 5 0 9 -4 9 -9z m-4740 -22 l25 -20
-32 16 c-18 8 -33 18 -33 20 0 10 16 4 40 -16z m-2730 -76 c0 -22 -7 -14 -29
30 l-21 42 25 -30 c14 -16 25 -36 25 -42z m6185 -31 c-108 -80 -165 -117 -165
-109 0 3 23 20 51 38 28 18 85 58 127 91 42 32 80 58 85 58 5 0 -39 -35 -98
-78z m-4744 41 c13 -16 12 -17 -3 -4 -17 13 -22 21 -14 21 2 0 10 -8 17 -17z
m-473 -136 c73 -74 132 -140 132 -147 0 -7 -3 -11 -6 -7 -4 3 -15 -4 -25 -16
-13 -14 -17 -16 -13 -6 3 10 1 20 -5 24 -6 3 -11 1 -11 -4 0 -6 -5 -11 -11
-11 -5 0 -8 4 -5 9 3 4 -5 13 -18 19 -12 5 -49 41 -82 78 -32 38 -65 75 -72
82 -36 38 -51 112 -23 112 4 0 66 -60 139 -133z m1952 108 c25 -13 41 -24 35
-24 -5 0 -30 11 -55 24 -25 13 -40 24 -35 24 6 0 30 -11 55 -24z m4550 22 c0
-2 -12 -14 -27 -28 l-28 -24 24 28 c23 25 31 32 31 24z m-4372 -96 c61 -25
110 -47 107 -49 -4 -4 -197 72 -223 88 -24 16 -11 11 116 -39z m-3527 -96 c43
-71 75 -133 71 -139 -4 -7 -8 -4 -10 7 -3 17 -22 24 -22 8 0 -15 29 -33 41
-25 8 4 9 3 5 -4 -4 -7 -2 -12 3 -12 6 0 11 -4 11 -10 0 -5 -7 -7 -15 -4 -17
7 -21 -11 -5 -21 6 -3 10 -11 10 -17 0 -15 -27 22 -93 128 -55 86 -68 115 -87
192 -15 59 10 31 91 -103z m809 116 c0 -23 -16 -36 -25 -21 -9 14 1 40 15 40
5 0 10 -9 10 -19z m6628 -7 c-7 -15 -14 -21 -16 -15 -5 16 5 41 17 41 7 0 6
-10 -1 -26z m-2201 0 c-3 -3 -12 -4 -19 -1 -8 3 -5 6 6 6 11 1 17 -2 13 -5z
m-57 -14 c-8 -5 -28 -9 -45 -9 -30 2 -30 2 5 9 51 11 57 11 40 0z m2620 -10
c0 -5 -2 -10 -4 -10 -3 0 -8 5 -11 10 -3 6 -1 10 4 10 6 0 11 -4 11 -10z
m-2713 -6 c-3 -3 -12 -4 -19 -1 -8 3 -5 6 6 6 11 1 17 -2 13 -5z m-4528 -72
c40 -60 70 -114 54 -97 -9 9 -89 124 -107 154 -6 10 -5 12 3 7 6 -4 28 -33 50
-64z m4449 61 c-10 -2 -26 -2 -35 0 -10 3 -2 5 17 5 19 0 27 -2 18 -5z m-141
-9 c-3 -3 -12 -4 -19 -1 -8 3 -5 6 6 6 11 1 17 -2 13 -5z m3338 -24 c17 -19
15 -21 -45 -89 -78 -88 -312 -313 -318 -306 -3 3 2 13 11 23 10 10 14 22 11
25 -4 4 -1 14 7 23 8 10 14 25 14 35 0 18 272 306 291 308 6 0 19 -8 29 -19z
m-4520 0 c13 -6 15 -9 5 -9 -8 0 -22 4 -30 9 -18 12 -2 12 25 0z m4232 4 c-3
-3 -12 -4 -19 -1 -8 3 -5 6 6 6 11 1 17 -2 13 -5z m-6869 -207 c178 -204 430
-414 812 -676 536 -368 813 -530 1250 -732 l115 -53 160 -5 c95 -4 160 -10
160 -16 0 -6 -98 -9 -270 -9 -288 1 -610 13 -601 22 3 3 115 4 248 4 l243 -2
-170 83 c-285 140 -515 277 -1005 602 -507 336 -813 595 -1044 881 -95 119
-46 70 102 -99z m5317 157 c-26 -20 -55 -36 -55 -30 0 5 63 46 70 46 3 -1 -4
-8 -15 -16z m1235 2 c0 -2 -7 -7 -16 -10 -8 -3 -12 -2 -9 4 6 10 25 14 25 6z
m-6630 -16 c0 -5 -4 -10 -10 -10 -5 0 -10 5 -10 10 0 6 5 10 10 10 6 0 10 -4
10 -10z m6100 -19 c0 -14 -150 -129 -245 -190 -225 -141 -453 -271 -476 -271
-8 1 4 10 26 21 22 12 72 39 110 62 70 41 93 55 157 91 67 38 285 187 352 241
75 59 76 60 76 46z m-6075 -19 c-3 -3 -11 0 -18 7 -9 10 -8 11 6 5 10 -3 15
-9 12 -12z m5285 3 c0 -2 -10 -9 -22 -15 -22 -11 -22 -10 -4 4 21 17 26 19 26
11z m1230 -25 c-19 -16 -55 -43 -80 -61 l-45 -31 40 34 c22 18 53 45 70 60 16
15 35 27 40 27 6 0 -6 -13 -25 -29z m-1280 -6 c0 -15 -381 -187 -505 -229
-248 -82 -532 -139 -750 -149 -104 -5 -96 -3 70 15 384 40 719 137 1055 305
141 71 130 66 130 58z m-4484 -182 c228 -202 622 -462 857 -566 31 -13 57 -27
57 -30 0 -14 -134 52 -310 154 -69 40 -143 82 -165 94 -22 11 -41 24 -43 29
-2 4 -14 7 -26 7 -12 0 -33 11 -46 25 -17 18 -27 22 -34 15 -7 -7 -1 -18 19
-36 l30 -26 -31 21 c-22 14 -31 29 -31 46 0 33 -10 42 -26 26 -9 -11 -9 -14 1
-18 6 -3 12 -9 12 -15 0 -6 -9 -3 -21 8 -14 12 -18 25 -14 41 5 21 -3 28 -28
24 -4 -1 -17 4 -29 10 -16 9 -19 8 -12 -3 6 -9 1 -8 -16 3 -14 9 -25 21 -25
27 0 6 -4 14 -9 19 -5 5 -6 3 -2 -4 11 -19 -9 -16 -25 4 -12 15 -12 16 1 8 13
-8 13 -6 2 8 -8 9 -10 22 -6 28 5 8 3 9 -5 5 -7 -5 -10 -14 -7 -22 8 -20 -2
-17 -38 10 -81 63 -164 142 -160 154 2 7 -1 10 -6 7 -13 -8 -41 19 -45 43 -1
9 -7 16 -13 15 -5 -1 -16 5 -23 13 -11 13 -10 18 4 26 10 5 14 14 10 21 -9 16
37 -23 203 -171z m1414 103 c0 -3 -27 8 -60 25 -33 17 -60 33 -60 35 0 3 27
-8 60 -25 33 -17 60 -33 60 -35z m3490 -10 c0 -2 -10 -9 -22 -15 -22 -11 -22
-10 -4 4 21 17 26 19 26 11z m730 0 c0 -2 -42 -34 -94 -70 -335 -233 -820
-475 -1231 -613 -242 -82 -625 -174 -704 -171 -30 2 -43 -2 169 40 173 35 396
96 589 163 379 131 826 355 1161 583 112 77 110 75 110 68z m-4799 -32 c13
-16 12 -17 -3 -4 -17 13 -22 21 -14 21 2 0 10 -8 17 -17z m-1732 -173 c4 -3
36 -41 71 -85 36 -44 125 -141 200 -216 116 -117 158 -151 295 -242 88 -58
216 -144 285 -192 253 -176 490 -326 710 -450 36 -20 56 -34 45 -30 -29 9
-249 131 -330 183 -38 25 -144 90 -235 145 -362 219 -624 411 -779 572 -146
152 -411 468 -411 490 0 4 32 -32 71 -81 39 -49 74 -91 78 -94z m1791 134 c0
-2 -9 0 -20 6 -11 6 -20 13 -20 16 0 2 9 0 20 -6 11 -6 20 -13 20 -16z m-540
-71 c0 -7 -39 17 -46 28 -3 6 5 3 20 -6 14 -10 26 -19 26 -22z m5480 22 c0 -1
-6 -8 -14 -15 -12 -9 -15 -8 -13 8 0 12 6 18 14 15 7 -3 13 -6 13 -8z m-40 -5
c0 -5 -5 -10 -11 -10 -5 0 -7 5 -4 10 3 6 8 10 11 10 2 0 4 -4 4 -10z m-7336
-74 c2 -10 8 -16 13 -13 9 5 85 -101 99 -136 5 -14 13 -17 33 -12 l26 6 -25
-21 -25 -20 -35 40 c-19 22 -59 79 -88 126 -41 66 -47 81 -28 67 14 -10 27
-26 30 -37z m7316 49 c0 -9 -62 -47 -67 -41 -10 10 24 42 47 43 11 1 20 0 20
-2z m-5300 -72 c0 -7 -39 17 -46 28 -3 6 5 3 20 -6 14 -10 26 -19 26 -22z
m5670 23 c0 -3 -4 -8 -10 -11 -5 -3 -10 -1 -10 4 0 6 5 11 10 11 6 0 10 -2 10
-4z m-4103 -12 c-3 -3 -12 -4 -19 -1 -8 3 -5 6 6 6 11 1 17 -2 13 -5z m3653
-28 c0 -6 -5 -4 -10 4 -7 12 -10 11 -17 -7 -14 -36 -162 -141 -177 -125 -4 4
-6 0 -4 -8 2 -8 -1 -15 -7 -15 -19 -2 -75 -42 -68 -49 4 -4 0 -4 -10 0 -11 4
-35 -6 -67 -26 -27 -17 -55 -33 -62 -34 -28 -5 -78 -37 -72 -47 4 -6 11 -6 20
2 8 6 17 9 20 6 3 -3 -4 -10 -15 -17 -12 -6 -21 -7 -21 -3 0 4 -4 3 -8 -3 -15
-25 -438 -231 -449 -220 -9 9 8 26 19 20 8 -5 9 -1 4 12 -4 10 -4 16 -1 12 6
-5 160 70 190 92 6 4 60 34 120 66 102 53 299 174 354 215 13 11 28 16 34 12
6 -3 7 -1 3 5 -4 7 7 18 26 28 18 9 42 24 53 33 18 15 19 15 6 -1 -12 -17 -11
-17 19 -11 33 6 77 41 73 56 -2 4 2 7 7 7 6 0 10 7 10 16 0 14 3 14 15 4 8 -7
15 -18 15 -24z m-5185 -4 c-3 -3 -11 0 -18 7 -9 10 -8 11 6 5 10 -3 15 -9 12
-12z m1622 12 c-3 -3 -12 -4 -19 -1 -8 3 -5 6 6 6 11 1 17 -2 13 -5z m50 -10
c-3 -3 -12 -4 -19 -1 -8 3 -5 6 6 6 11 1 17 -2 13 -5z m56 -11 c-7 -2 -19 -2
-25 0 -7 3 -2 5 12 5 14 0 19 -2 13 -5z m70 -10 c-7 -2 -21 -2 -30 0 -10 3 -4
5 12 5 17 0 24 -2 18 -5z m65 -10 c-10 -2 -26 -2 -35 0 -10 3 -2 5 17 5 19 0
27 -2 18 -5z m-1768 -29 c0 -2 -9 0 -20 6 -11 6 -20 13 -20 16 0 2 9 0 20 -6
11 -6 20 -13 20 -16z m2225 6 l290 -7 -310 3 c-170 2 -335 8 -365 13 -51 9
-49 9 20 4 41 -3 206 -9 365 -13z m2979 12 c7 -12 -42 -38 -51 -28 -5 4 1 14
11 22 23 16 33 18 40 6z m-5604 -27 c-7 -8 -17 -12 -23 -8 -6 4 -3 9 9 14 27
11 28 11 14 -6z m-91 -9 c9 -10 9 -16 1 -21 -6 -4 -14 -4 -17 -1 -4 3 0 6 8 6
10 1 8 5 -5 15 -11 8 -15 15 -9 15 6 0 16 -6 22 -14z m541 -12 c0 -2 -9 0 -20
6 -11 6 -20 13 -20 16 0 2 9 0 20 -6 11 -6 20 -13 20 -16z m-1780 -15 c0 24
18 7 80 -80 123 -171 177 -234 286 -338 147 -140 206 -186 436 -340 184 -123
222 -151 201 -151 -31 1 -308 171 -442 271 -79 60 -257 219 -265 237 -3 8 31
-20 76 -61 46 -42 84 -74 86 -72 2 2 -51 57 -118 122 -67 64 -135 136 -151
160 -17 24 -34 43 -40 43 -17 0 8 -37 73 -105 33 -36 56 -65 52 -65 -20 0
-256 297 -294 370 -12 23 -12 24 3 11 11 -9 17 -10 17 -2z m1895 -52 c6 -6
-12 2 -40 18 -27 15 -54 32 -60 38 -5 6 13 -2 40 -18 28 -15 55 -32 60 -38z
m6110 18 c-1 -14 -11 -33 -21 -43 -11 -9 -20 -23 -22 -31 -5 -24 -63 -92 -73
-86 -5 4 -6 0 -3 -8 11 -29 -328 -350 -531 -501 -57 -43 -255 -178 -341 -233
-15 -9 35 -12 237 -12 l256 -1 84 87 c110 116 331 334 334 331 1 -2 0 -20 -3
-41 -3 -28 -8 -37 -19 -33 -8 3 -11 1 -8 -4 6 -10 -49 -72 -244 -275 l-106
-110 -205 -3 c-321 -6 -750 8 -750 23 0 9 41 14 163 17 l162 4 126 90 c70 49
167 117 215 151 116 81 338 264 438 361 73 71 116 119 205 230 18 23 37 39 42
36 5 -3 6 1 3 9 -3 8 3 20 12 28 16 12 17 12 9 -1 -8 -13 -6 -13 8 -1 9 7 15
17 12 21 -3 5 1 11 7 13 7 3 14 6 15 6 1 1 0 -10 -2 -24z m-6750 5 c-3 -5 -12
-10 -18 -10 -7 0 -6 4 3 10 19 12 23 12 15 0z m40 0 c-3 -5 0 -8 7 -5 7 3 27
-7 43 -21 17 -14 24 -23 18 -19 -7 3 -13 1 -13 -5 0 -7 7 -10 15 -6 14 5 182
-101 405 -255 47 -32 122 -82 168 -110 59 -36 82 -56 78 -66 -3 -8 -6 -21 -6
-28 0 -10 -16 -4 -50 17 -27 17 -47 35 -43 41 3 6 1 7 -5 3 -6 -3 -37 9 -69
28 -118 71 -528 354 -526 364 1 5 -5 9 -15 8 -9 0 -16 4 -15 11 2 7 -3 10 -11
7 -8 -3 -17 -1 -21 5 -3 6 1 11 9 11 9 0 15 3 15 8 -3 15 1 22 12 22 5 0 7 -4
4 -10z m5470 -40 c-3 -5 -11 -10 -16 -10 -6 0 -7 5 -4 10 3 6 11 10 16 10 6 0
7 -4 4 -10z m-4755 -46 c0 -2 -9 0 -20 6 -11 6 -20 13 -20 16 0 2 9 0 20 -6
11 -6 20 -13 20 -16z m4640 16 c0 -5 -5 -10 -11 -10 -5 0 -7 5 -4 10 3 6 8 10
11 10 2 0 4 -4 4 -10z m50 -4 c0 -2 -8 -10 -17 -17 -16 -13 -17 -12 -4 4 13
16 21 21 21 13z m-4610 -46 c30 -16 51 -29 45 -29 -5 0 -35 13 -65 29 -30 16
-50 29 -45 29 6 0 35 -13 65 -29z m4505 11 c-3 -6 -11 -11 -17 -11 -6 0 -6 6
2 15 14 17 26 13 15 -4z m-130 1 c-6 -5 -26 -18 -46 -30 -27 -16 -36 -18 -36
-8 0 8 5 12 11 10 6 -2 22 5 36 16 24 19 54 29 35 12z m195 4 c0 -3 -4 -8 -10
-11 -5 -3 -10 -1 -10 4 0 6 5 11 10 11 6 0 10 -2 10 -4z m-130 -41 c-7 -8 -17
-15 -23 -15 -6 0 -2 7 9 15 25 19 30 19 14 0z m-6603 -222 c110 -109 277 -278
373 -375 l174 -178 135 -1 c136 -1 252 -15 148 -18 -29 -1 -46 -5 -42 -11 4
-6 -41 -10 -128 -10 l-135 0 -203 205 c-121 122 -206 200 -210 194 -4 -6 -4
-87 -1 -179 5 -166 5 -168 -17 -180 -13 -6 -25 -9 -28 -6 -3 3 -5 97 -4 208
l1 203 -155 160 c-85 88 -155 166 -155 173 0 6 11 12 24 12 17 0 76 -52 223
-197z m1504 170 c13 -16 12 -17 -3 -4 -17 13 -22 21 -14 21 2 0 10 -8 17 -17z
m879 -23 c8 -5 11 -10 5 -10 -5 0 -17 5 -25 10 -8 5 -10 10 -5 10 6 0 17 -5
25 -10z m4370 5 c0 -2 -10 -9 -22 -15 -22 -11 -22 -10 -4 4 21 17 26 19 26 11z
m-240 -15 c-20 -13 -33 -13 -25 0 3 6 14 10 23 10 15 0 15 -2 2 -10z m-4075
-10 c13 -6 15 -9 5 -9 -8 0 -22 4 -30 9 -18 12 -2 12 25 0z m4028 -12 c-2 -5
-14 -8 -26 -8 -15 0 -18 -3 -10 -8 9 -5 0 -13 -25 -21 -20 -8 -39 -17 -42 -21
-3 -3 -27 -18 -55 -31 -27 -14 -96 -49 -153 -78 -57 -29 -106 -51 -108 -48 -3
3 -35 -10 -72 -28 -63 -30 -67 -35 -69 -68 l-3 -36 48 20 c26 12 63 27 83 34
34 12 36 12 32 -6 -6 -23 13 -25 25 -2 5 9 22 17 38 19 16 1 23 0 15 -3 -11
-4 -11 -7 0 -13 8 -5 -41 -35 -139 -84 -84 -42 -170 -92 -191 -111 -45 -41
-59 -43 -95 -14 -24 19 -27 26 -20 62 3 23 12 49 18 59 8 14 8 21 -2 27 -9 6
-8 12 8 26 11 10 20 26 20 35 0 9 7 25 15 36 15 19 16 19 13 -1 -2 -15 3 -20
22 -20 19 0 26 6 28 25 5 36 29 50 89 50 35 0 75 9 116 26 70 30 273 125 328
155 20 10 44 19 53 19 9 0 16 3 16 8 0 4 11 7 24 7 13 0 22 -3 19 -7z m-6822
-133 l7 -120 141 -140 c77 -76 141 -145 141 -153 0 -12 -27 -13 -172 -7 -95 4
-177 8 -182 8 -10 2 -17 -25 -19 -80 -3 -69 -17 -61 -17 10 l0 67 -100 0 -100
0 2 98 c0 53 3 82 5 65 2 -18 8 -33 14 -33 5 0 9 -22 9 -50 l0 -50 105 0 105
0 0 256 0 255 28 -3 27 -3 6 -120z m2869 115 c8 -5 11 -10 5 -10 -5 0 -17 5
-25 10 -8 5 -10 10 -5 10 6 0 17 -5 25 -10z m4110 -25 c0 -7 -153 -95 -165
-95 -8 0 153 99 163 100 1 0 2 -2 2 -5z m-7463 -22 c4 -10 -13 -13 -61 -13
-46 0 -66 4 -66 13 0 8 19 12 62 12 40 0 63 -4 65 -12z m3450 11 c-3 -3 -12
-4 -19 -1 -8 3 -5 6 6 6 11 1 17 -2 13 -5z m-3383 -20 c14 -5 16 -35 16 -230
0 -190 -2 -224 -15 -224 -12 0 -15 36 -17 230 -2 127 -2 230 -1 230 1 0 8 -3
17 -6z m2936 -9 c14 -8 21 -14 15 -14 -5 0 -21 6 -35 14 -14 8 -20 14 -15 14
6 0 21 -6 35 -14z m3677 -98 c0 -7 -8 -13 -18 -13 -13 0 -15 3 -7 13 6 7 14
13 18 13 3 0 7 -6 7 -13z m-3364 -33 c29 -13 41 -22 29 -18 -13 3 -47 17 -75
30 -29 13 -41 22 -29 18 13 -3 47 -17 75 -30z m3322 -4 c-11 -4 -26 -3 -32 2
-9 7 -13 7 -13 -1 0 -6 -7 -11 -15 -11 -21 0 -19 18 3 22 9 2 30 2 47 -1 26
-3 27 -5 10 -11z m-86 -15 c-3 -2 -23 -12 -45 -21 -43 -18 -36 -4 11 20 26 13
47 14 34 1z m-946 -2 c-7 -2 -21 -2 -30 0 -10 3 -4 5 12 5 17 0 24 -2 18 -5z
m1517 -7 c0 -2 -9 -6 -20 -9 -11 -3 -20 -1 -20 4 0 5 9 9 20 9 11 0 20 -2 20
-4z m-3920 -26 c0 -5 -2 -10 -4 -10 -3 0 -8 5 -11 10 -3 6 -1 10 4 10 6 0 11
-4 11 -10z m3865 0 c-3 -5 -11 -10 -16 -10 -6 0 -7 5 -4 10 3 6 11 10 16 10 6
0 7 -4 4 -10z m-625 -4 c0 -2 -7 -7 -16 -10 -8 -3 -12 -2 -9 4 6 10 25 14 25
6z m-52 -21 c-2 -3 -20 -7 -39 -10 l-34 -5 35 14 c32 12 50 13 38 1z m642 11
c0 -2 -7 -7 -16 -10 -8 -3 -12 -2 -9 4 6 10 25 14 25 6z m-3920 -23 c14 -9 27
-18 29 -19 7 -6 -29 -54 -41 -54 -18 0 -48 31 -48 50 0 15 18 40 30 40 3 0 17
-8 30 -17z m3194 -8 c-3 -8 -13 -16 -22 -19 -10 -3 -43 -12 -76 -22 -37 -10
-54 -19 -46 -24 8 -5 1 -10 -21 -15 -19 -4 -63 -15 -99 -26 -36 -10 -79 -20
-95 -22 -17 -2 -35 -6 -40 -9 -6 -3 -26 -9 -45 -12 -19 -4 -55 -11 -80 -16
-76 -16 -222 -38 -290 -45 -36 -3 -82 -8 -104 -12 -27 -3 -36 -2 -32 6 4 6 19
11 34 11 21 0 24 2 12 10 -10 7 1 8 34 3 36 -4 47 -3 42 5 -7 12 28 16 126 15
21 0 36 3 33 7 -7 11 91 31 160 33 33 1 62 5 65 8 12 13 90 38 94 30 7 -11 99
8 108 23 5 7 8 7 8 1 0 -7 15 -9 36 -7 22 3 31 7 24 12 -9 6 -7 11 9 19 11 7
21 9 21 5 0 -3 7 -1 15 6 8 7 15 10 15 7 0 -3 26 5 58 18 31 13 58 24 59 24 1
1 0 -6 -3 -14z m26 -115 c-26 -18 -170 -60 -355 -106 -348 -86 -785 -131
-1150 -119 -199 7 -396 22 -428 34 -19 7 -18 9 10 13 18 2 30 1 27 -3 -8 -13
114 -15 446 -7 541 12 812 47 1235 158 144 38 249 52 215 30z m-988 -87 c-6
-2 -10 -8 -7 -12 5 -8 -144 -25 -151 -18 -3 2 24 8 58 12 51 6 58 9 38 15 -19
6 -13 8 25 8 28 0 44 -2 37 -5z m-244 -20 c-15 -2 -42 -2 -60 0 -18 2 -6 4 27
4 33 0 48 -2 33 -4z m1129 1 c-3 -3 -12 -4 -19 -1 -8 3 -5 6 6 6 11 1 17 -2
13 -5z m-1580 -10 c-3 -3 -12 -4 -19 -1 -8 3 -5 6 6 6 11 1 17 -2 13 -5z
m1546 -7 c22 -23 18 -37 -10 -37 -14 0 -23 -3 -19 -7 9 -9 -78 -36 -249 -78
-310 -75 -483 -95 -891 -102 -462 -8 -708 14 -1059 93 -168 38 -323 85 -270
82 17 -1 39 3 50 9 22 12 29 11 215 -30 289 -64 631 -99 960 -100 264 0 466
16 715 58 136 23 463 97 508 115 31 12 37 12 50 -3z m3558 -100 c-13 -13 -26
-3 -16 12 3 6 11 8 17 5 6 -4 6 -10 -1 -17z m-7627 -17 c151 0 216 -8 216 -26
0 -17 -72 -19 -147 -5 -30 6 -75 6 -111 1 -75 -10 -128 1 -128 29 0 16 4 17
24 10 13 -5 79 -9 146 -9z m-2069 0 c3 -5 1 -10 -4 -10 -6 0 -11 5 -11 10 0 6
2 10 4 10 3 0 8 -4 11 -10z m1585 -159 c36 -4 58 -10 50 -14 -18 -8 -410 -14
-410 -6 0 3 5 10 12 17 13 13 233 15 348 3z m-182 -108 c-16 -2 -40 -2 -55 0
-16 2 -3 4 27 4 30 0 43 -2 28 -4z m2220 0 c-49 -2 -127 -2 -175 0 -49 1 -9 3
87 3 96 0 136 -2 88 -3z m265 0 c-29 -2 -78 -2 -110 0 -32 2 -8 3 52 3 61 0
87 -1 58 -3z m1825 -10 c-10 -2 -28 -2 -40 0 -13 2 -5 4 17 4 22 1 32 -1 23
-4z"/>
<path d="M7181 9544 c7 -8 26 -22 43 -31 17 -8 40 -23 51 -33 11 -10 54 -37
95 -61 108 -60 349 -212 465 -293 176 -122 341 -259 609 -508 87 -82 161 -148
165 -148 3 0 12 4 19 8 12 8 -81 107 -203 217 -16 14 -55 50 -85 79 -188 177
-532 441 -729 558 -93 55 -423 228 -436 228 -4 0 -2 -7 6 -16z"/>
<path d="M8860 8280 c-9 -6 -10 -10 -3 -10 6 0 15 5 18 10 8 12 4 12 -15 0z"/>
<path d="M8906 8231 c-18 -20 -17 -21 15 -63 45 -57 68 -84 107 -129 17 -20
32 -42 32 -48 0 -7 8 -11 17 -9 10 2 31 -12 49 -32 18 -19 36 -32 40 -28 9 10
-16 39 -27 32 -5 -3 -14 7 -21 21 -7 16 -17 24 -26 20 -9 -3 -12 0 -9 8 5 14
-131 238 -149 244 -6 2 -19 -5 -28 -16z"/>
<path d="M8904 7946 c1 -8 5 -18 8 -22 4 -3 5 1 4 10 -1 8 -5 18 -8 22 -4 3
-5 -1 -4 -10z"/>
<path d="M9040 7798 c0 -14 8 -36 18 -49 70 -91 292 -524 377 -734 31 -77 62
-153 70 -170 14 -32 72 -206 80 -240 2 -11 21 -72 40 -135 80 -255 154 -618
186 -910 16 -151 17 -640 1 -805 -51 -526 -172 -1045 -337 -1450 -82 -201
-143 -325 -280 -572 -69 -126 -131 -236 -136 -247 -7 -11 -7 -22 -1 -28 24
-24 301 469 425 758 191 443 319 969 377 1559 14 140 14 568 0 750 -16 207
-63 491 -114 685 -124 479 -236 791 -401 1120 -47 95 -82 177 -78 183 3 7 2 8
-2 4 -5 -4 -23 16 -39 45 -45 76 -151 231 -170 247 -14 12 -16 10 -16 -11z"/>
<path d="M5638 9803 c7 -3 16 -2 19 1 4 3 -2 6 -13 5 -11 0 -14 -3 -6 -6z"/>
<path d="M870 8530 c-25 -22 -40 -40 -35 -40 6 0 29 18 50 40 50 51 43 51 -15
0z"/>
<path d="M665 8320 c-3 -6 1 -7 9 -4 18 7 21 14 7 14 -6 0 -13 -4 -16 -10z"/>
<path d="M6344 8052 c-16 -10 -46 -72 -35 -72 5 0 18 18 30 40 11 22 20 40 18
40 -1 0 -7 -4 -13 -8z"/>
<path d="M4858 2263 c7 -3 16 -2 19 1 4 3 -2 6 -13 5 -11 0 -14 -3 -6 -6z"/>
<path d="M2867 6683 c-4 -3 -7 -11 -7 -17 0 -6 5 -5 12 2 6 6 9 14 7 17 -3 3
-9 2 -12 -2z"/>
<path d="M2783 6558 c-6 -7 -16 -24 -22 -38 -12 -24 -12 -24 4 -5 20 24 37 55
32 55 -3 0 -9 -6 -14 -12z"/>
<path d="M2735 6480 c-3 -5 -1 -10 4 -10 6 0 11 5 11 10 0 6 -2 10 -4 10 -3 0
-8 -4 -11 -10z"/>
<path d="M4378 2443 c7 -3 16 -2 19 1 4 3 -2 6 -13 5 -11 0 -14 -3 -6 -6z"/>
<path d="M7680 7156 c0 -2 8 -10 18 -17 15 -13 16 -12 3 4 -13 16 -21 21 -21
13z"/>
<path d="M3910 6735 c-7 -9 -8 -15 -2 -15 5 0 12 7 16 15 3 8 4 15 2 15 -2 0
-9 -7 -16 -15z"/>
<path d="M2500 6345 c-7 -9 -11 -17 -9 -20 3 -2 10 5 17 15 14 24 10 26 -8 5z"/>
<path d="M2466 6271 c-4 -7 -5 -15 -2 -18 9 -9 19 4 14 18 -4 11 -6 11 -12 0z"/>
<path d="M2441 6214 c-6 -15 -9 -29 -7 -32 3 -2 10 8 16 23 14 36 7 43 -9 9z"/>
<path d="M4463 6403 c-15 -5 -17 -23 -4 -23 5 0 11 7 15 15 3 8 4 15 3 14 -1
0 -8 -3 -14 -6z"/>
<path d="M4423 6374 c-18 -19 -16 -23 7 -17 20 5 26 18 13 26 -5 3 -14 -1 -20
-9z"/>
<path d="M4386 6343 c-6 -14 -5 -15 5 -6 7 7 10 15 7 18 -3 3 -9 -2 -12 -12z"/>
<path d="M6401 5438 c-1 -28 3 -38 14 -38 10 0 15 10 15 33 0 22 -3 28 -9 18
-7 -11 -10 -10 -14 5 -2 10 -5 2 -6 -18z"/>
<path d="M6451 5284 c0 -11 3 -14 6 -6 3 7 2 16 -1 19 -3 4 -6 -2 -5 -13z"/>
<path d="M6463 5090 c0 -30 2 -43 4 -27 2 15 2 39 0 55 -2 15 -4 2 -4 -28z"/>
<path d="M6452 4960 c0 -14 2 -19 5 -12 2 6 2 18 0 25 -3 6 -5 1 -5 -13z"/>
<path d="M6401 4744 c0 -11 3 -14 6 -6 3 7 2 16 -1 19 -3 4 -6 -2 -5 -13z"/>
<path d="M6401 4674 c0 -11 3 -14 6 -6 3 7 2 16 -1 19 -3 4 -6 -2 -5 -13z"/>
<path d="M5310 5872 c0 -6 70 -104 155 -219 85 -114 155 -210 155 -213 0 -3
-37 -26 -83 -53 -45 -26 -147 -87 -227 -136 l-145 -89 -3 -253 c-2 -140 0
-309 3 -377 l7 -123 80 -62 c44 -34 92 -71 105 -81 22 -17 28 -18 48 -5 41 24
455 344 455 350 0 4 -56 42 -125 84 -69 43 -128 82 -131 87 -10 16 -4 423 6
426 16 6 171 112 253 175 67 51 76 61 65 74 -7 9 -80 61 -163 116 -82 55 -213
144 -290 197 -169 116 -165 114 -165 102z"/>
<path d="M2800 3057 c0 -8 7 -14 15 -14 11 0 12 4 4 14 -6 7 -13 13 -15 13 -2
0 -4 -6 -4 -13z"/>
<path d="M2840 3033 c0 -15 19 -37 26 -31 3 4 -1 14 -10 23 -9 9 -16 13 -16 8z"/>
<path d="M2785 2991 c-3 -5 -2 -12 3 -15 5 -3 9 1 9 9 0 17 -3 19 -12 6z"/>
<path d="M2877 2984 c-4 -4 -7 -14 -7 -23 0 -11 3 -12 11 -4 6 6 10 16 7 23
-2 6 -7 8 -11 4z"/>
<path d="M1760 2006 c0 -2 8 -10 18 -17 15 -13 16 -12 3 4 -13 16 -21 21 -21
13z"/>
<path d="M2040 1763 c0 -12 48 -58 54 -52 6 6 -4 20 -31 43 -13 11 -23 15 -23
9z"/>
<path d="M7795 1390 c-4 -6 -16 -8 -28 -5 -19 5 -20 5 -4 -5 13 -8 22 -7 39 4
12 9 17 16 11 16 -7 0 -15 -5 -18 -10z"/>
<path d="M7730 1371 c0 -5 7 -12 16 -15 14 -5 15 -4 4 9 -14 17 -20 19 -20 6z"/>
<path d="M3070 866 c0 -2 9 -6 20 -9 11 -3 18 -1 14 4 -5 9 -34 13 -34 5z"/>
<path d="M866 1102 c-3 -6 -1 -14 5 -17 15 -10 25 3 12 16 -7 7 -13 7 -17 1z"/>
<path d="M7065 770 c-3 -5 -1 -10 4 -10 6 0 11 5 11 10 0 6 -2 10 -4 10 -3 0
-8 -4 -11 -10z"/>
<path d="M6925 680 c-3 -5 -2 -10 4 -10 5 0 13 5 16 10 3 6 2 10 -4 10 -5 0
-13 -4 -16 -10z"/>
<path d="M2458 383 c12 -2 32 -2 45 0 12 2 2 4 -23 4 -25 0 -35 -2 -22 -4z"/>
</g>
</svg>
